<svg width="37" height="29" viewBox="0 0 37 29" fill="none" xmlns="http://www.w3.org/2000/svg">
<path d="M18.1943 21.2431C19.035 21.2431 19.7166 20.5615 19.7166 19.7206C19.7166 18.8797 19.035 18.1981 18.1943 18.1981C17.3536 18.1981 16.6721 18.8797 16.6721 19.7206C16.6721 20.5615 17.3536 21.2431 18.1943 21.2431Z" fill="white"/>
<path d="M18.1943 0C8.11858 0 0 8.19275 0 18.1981C0 21.7507 1.01481 25.1583 2.97197 28.1309C3.26192 28.5659 3.69683 28.8559 4.27673 28.8559H32.2569C32.7643 28.8559 33.2717 28.5659 33.5617 28.1309C39.0707 19.7206 36.6786 8.41026 28.1976 2.90009C25.1531 1.01503 21.7462 0 18.1943 0ZM22.1087 22.0407C20.8039 24.2157 18.0494 24.9408 15.8747 23.6357C13.7001 22.4032 12.9752 19.6481 14.2075 17.473C15.4398 15.298 22.6886 11.8904 22.6886 11.8904C22.6886 11.8904 23.4134 19.8656 22.1087 22.0407ZM32.9093 24.2882H31.2421C31.8945 22.8382 32.3294 21.3156 32.4744 19.7206H30.2997V16.6755H32.4744C32.3294 15.153 31.8944 13.7029 31.3145 12.3254L29.4299 13.4129L27.9077 10.8028L29.7923 9.7153C28.9225 8.48276 27.8351 7.39523 26.6029 6.5252L25.5155 8.41026L22.906 6.88771L23.9933 5.00265C22.6161 4.42263 21.1663 3.98762 19.6441 3.84262V6.01768H16.5996V3.84262C15.0774 3.98762 13.6276 4.42263 12.2504 5.00265L13.3377 6.88771L10.7281 8.41026L9.64082 6.5252C8.40854 7.39523 7.32121 8.48276 6.45136 9.7153L8.33606 10.8028L6.81379 13.4129L4.92914 12.3254C4.34924 13.7029 3.91429 15.153 3.76931 16.6755H5.94394V19.7206H3.76931C3.91429 21.3156 4.34922 22.8382 5.00161 24.2882H3.33441C-1.7628e-05 16.168 3.84184 6.81521 11.9604 3.48011C20.079 0.145005 29.4299 3.98762 32.7643 12.1079C34.5765 16.023 34.5765 20.4456 32.9093 24.2882Z" fill="white"/>
</svg>
