<svg width="50" height="60" viewBox="0 0 50 60" fill="none" xmlns="http://www.w3.org/2000/svg">
<path d="M25.4659 14.3205V45.1003M32.9915 24.645C32.9915 24.645 32.7049 17.7429 25.7275 17.7429C18.7538 17.7429 18.3166 22.0934 18.3166 24.645C18.3166 27.1965 21.1763 29.9272 25.6523 29.9272C30.1282 29.9272 32.988 32.0452 32.988 35.7757C32.988 39.5063 30.5045 42.0542 25.6559 42.0542C20.8036 42.0542 17.9439 40.1872 17.9439 35.274M46.2868 39.4131L42.5921 40.2517L41.2339 36.6788M4 19.5885L7.69472 18.7499L9.05291 22.3228M12.9913 12.9874C19.5207 8.18538 28.5693 7.53674 35.8943 12.0485C45.5307 17.9866 48.5301 30.6117 42.5957 40.2481M37.5212 45.8457C30.9775 50.7983 21.8035 51.515 14.3961 46.9531C4.75973 41.0114 1.75665 28.3863 7.69472 18.7499" stroke="#00ADC6" stroke-width="1.2" stroke-linecap="round" stroke-linejoin="round"/>
</svg>
