<svg width="59" height="59" fill="none" xmlns="http://www.w3.org/2000/svg">
  <path d="M28.101 38.082H4.761c-.538 0-.845-.384-.845-.998V22.035c0-.767.307-1.075 1.075-1.075H28.1c.077 0 .154 0 .307-.076l-.23-.23c-.998-.999-1.997-1.997-2.995-3.072-.46-.46-.921-.614-1.535-.614H3.916c-1.229 0-2.227.384-2.995 1.382C.384 19.041 0 19.732 0 20.653v17.583c0 .921.384 1.689.921 2.38.768.844 1.766 1.305 2.918 1.305H23.8c.461 0 .845-.154 1.229-.46 1.075-1.075 2.073-2.15 3.148-3.148.076-.077.153-.077.153-.154 0-.154-.153-.077-.23-.077zM58.89 20.346c-.308-1.92-1.844-3.301-3.84-3.301H35.395c-.614 0-1.152.23-1.613.69l-3.07 3.072c-.077.077-.154.077-.077.23h23.34c.154 0 .384 0 .538.077.384.154.537.46.537.921v15.279c-.077.538-.307.922-.844.922H30.712c-.077 0-.077.077 0 .077 1.074 1.151 2.226 2.226 3.3 3.378.308.307.692.46 1.152.46h20.04c.537 0 .998-.076 1.459-.307 1.458-.767 2.303-1.92 2.303-3.608V21.114c0-.384 0-.537-.077-.768z" fill="#6D6E71"/>
  <path d="M38.082 27.64c-.077-.076-.153-.076-.23-.076H21.114c-.153 0-.23.076-.23.23v3.455c0 .077 0 .153.077.23h16.89c.231 0 .308-.077.308-.23-.077-1.229-.077-2.457-.077-3.609zm3.839-13.282V4.146c0-.23 0-.537-.077-.768-.153-1.305-.921-2.226-1.996-2.917C39.464.23 39.004.154 38.62 0H20.193v.077c-.845.077-1.536.46-2.15 1.075-.614.614-.998 1.458-1.152 2.303-.076.077-.076.154-.076.23v10.442c0 .23.076.23.23.23H20.5c.077 0 .154 0 .23-.076V4.683c0-.46.23-.767.691-.844h15.663c.46.077.614.307.691.768v9.444c0 .23.077.23.23.23h3.456c.307.077.46.153.46.077zm-24.876-.154zm24.953 30.712c0-.154-.077-.23-.23-.23h-3.61c-.076.076-.076.153-.076.23v9.443c-.077.538-.384.768-.998.768H21.729c-.385 0-.615-.23-.768-.614-.077-.154 0-.384 0-.538v-8.983c0-.23-.077-.307-.308-.307h-3.608c-.077.077-.077.154-.077.23v10.596c.154 1.766 1.612 3.225 3.378 3.455.154.077.307 0 .46 0h17.276c.154-.077.307 0 .46 0 .462-.077.922-.23 1.383-.46 1.228-.692 1.996-1.767 1.996-3.225.077-3.455 0-6.91.077-10.365z" fill="#4393CF"/>
  <path d="M38.543 58.966h-.46c.23 0 .383.077.46 0z" fill="#4393CF"/>
</svg>
