<svg width="50" height="60" viewBox="0 0 50 60" fill="none" xmlns="http://www.w3.org/2000/svg">
<path d="M24.5 9C35.8202 9 45 18.1798 45 29.5C45 40.8202 35.8202 50 24.5 50C13.1798 50 4 40.8202 4 29.5C4 22.0036 8.0522 15.4245 14.0971 11.8292C17.1547 9.9946 20.75 9 24.5 9Z" stroke="#9ECC7A" stroke-width="1.2" stroke-linejoin="round"/>
<path d="M38.4103 24.4954C38.4103 22.2355 36.6953 20.5205 34.5901 20.5205C32.3303 20.5205 30.6152 22.2355 30.6152 24.4954C30.6152 26.6005 32.3303 28.3156 34.5901 28.3156C36.6953 28.3156 38.4103 26.6005 38.4103 24.4954Z" stroke="#9ECC7A" stroke-width="1.2" stroke-linecap="round" stroke-linejoin="round"/>
<path d="M41.5312 35.5625V32.5998C41.5312 31.5876 39.426 28.5476 34.5163 28.5476C29.6065 28.5476 27.5014 31.5876 27.5014 32.5998V35.5625H41.5312Z" stroke="#9ECC7A" stroke-width="1.2" stroke-linecap="round" stroke-linejoin="round"/>
<path d="M29.4484 21.9228C29.4484 19.1182 27.2659 16.9357 24.616 16.9357C21.8114 16.9357 19.6289 19.1182 19.6289 21.9228C19.6289 24.5727 21.8114 26.7552 24.616 26.7552C27.2659 26.7552 29.4484 24.5727 29.4484 21.9228Z" stroke="#9ECC7A" stroke-width="1.2" stroke-linecap="round" stroke-linejoin="round"/>
<path d="M33.1105 35.5625V31.9004C33.1105 30.6528 30.5379 26.7552 24.5352 26.7552C18.5324 26.7552 15.9598 30.5754 15.9598 31.9004V35.5625H33.107H33.1105Z" stroke="#9ECC7A" stroke-width="1.2" stroke-linecap="round" stroke-linejoin="round"/>
<path d="M18.3813 24.4954C18.3813 22.2355 16.6662 20.5205 14.561 20.5205C12.3012 20.5205 10.5861 22.2355 10.5861 24.4954C10.5861 26.6005 12.3012 28.3156 14.561 28.3156C16.6662 28.3156 18.3813 26.6005 18.3813 24.4954Z" stroke="#9ECC7A" stroke-width="1.2" stroke-linecap="round" stroke-linejoin="round"/>
<path d="M21.4986 35.5625V32.5998C21.4986 31.5876 19.3934 28.5476 14.4837 28.5476C9.57397 28.5476 7.4688 31.5876 7.4688 32.5998V35.5625H21.4986V35.5625Z" stroke="#9ECC7A" stroke-width="1.2" stroke-linecap="round" stroke-linejoin="round"/>
</svg>
