<svg width="35" height="36" viewBox="0 0 35 36" fill="none" xmlns="http://www.w3.org/2000/svg">
<path d="M0.4574 34.5836C0.312425 34.2935 0.384904 34.2935 0.312416 34.1485C-1.64474 14.3554 6.03893 6.81521 10.9681 5.22016C11.8379 4.93015 12.2728 5.14766 12.7077 6.01769C12.9977 6.5252 13.2876 7.03272 13.4326 7.61273C13.8675 9.35279 14.1575 10.4403 14.23 12.4704C14.3025 12.6879 14.1575 13.0504 14.0126 13.1954C13.2877 14.1379 12.3453 14.9355 11.258 15.588C10.6781 15.9505 11.113 16.8205 11.548 16.603C11.9829 16.3855 11.8379 16.458 11.9829 16.3855C13.6501 15.443 14.9549 14.0654 15.8972 12.3254C16.0422 12.1079 16.0422 11.8904 16.0422 11.6729C16.0422 8.26525 16.0422 4.93015 16.0422 1.59505C16.0422 0.942527 16.1872 0.435013 16.7671 0C17.057 0 17.202 0.0724956 17.4919 0.0724956C17.9994 0.580011 18.0718 1.23253 18.0718 1.88505C18.0718 4.64014 17.9994 7.75774 17.9994 10.0053C17.9994 12.2529 19.2316 13.5579 19.3041 13.7029C19.5941 14.1379 21.4787 15.8055 22.2761 16.5305C22.4936 16.6755 22.856 16.6755 23.001 16.458C23.1459 16.2405 23.146 15.9505 22.9285 15.8055C22.2036 15.153 20.5364 13.7029 20.174 13.1954C20.1015 13.0504 20.029 12.8329 20.029 12.6879C20.319 11.2378 20.7539 7.25022 21.7687 5.43767C22.0586 4.85765 22.566 4.64014 23.2184 4.78514C24.0883 4.93014 26.0455 6.23519 28.7275 10.0053C37.0636 21.3157 34.0916 33.351 33.9466 34.1485C33.8016 35.0186 33.5842 35.0911 32.7143 34.9461C28.3651 33.8585 24.7407 31.756 21.6962 28.3484C18.4343 25.1583 18.9417 21.5332 18.8692 19.7206C18.8692 19.7206 18.9417 19.6481 19.0142 19.6481C19.2316 20.0106 19.5941 20.5906 19.9565 21.0981C20.174 21.4606 20.7539 21.5332 20.9713 21.1706C21.1888 20.9531 21.1888 20.5906 21.0438 20.3731C20.3189 19.2856 18.2893 16.458 17.2745 14.9355C17.202 14.8629 17.1295 14.7179 16.9845 14.5729C16.8396 14.7179 16.7671 14.863 16.6221 15.0805C15.9697 16.023 13.2152 18.9231 12.2728 19.9381C12.1279 20.0831 12.1279 20.3006 12.2004 20.4456C12.3453 20.8081 12.7802 20.8806 13.0702 20.5906C13.6501 20.0106 14.5924 18.9956 15.0274 18.6331C14.9549 19.2131 14.9549 21.8232 14.8824 23.2007C14.8099 24.6508 14.4475 26.0283 13.5776 27.2608C10.4606 32.481 0.964812 35.8161 0.4574 34.5836Z" fill="white"/>
</svg>
