<svg width="22" height="42" viewBox="0 0 22 42" fill="none" xmlns="http://www.w3.org/2000/svg">
<path d="M15.4398 21.6782C15.2948 21.6057 15.2224 21.4607 15.2224 21.3882V4.56764C15.2224 2.03006 13.1927 0 10.6556 0C8.11859 0 6.08895 2.03006 6.08895 4.56764V21.3157C6.08895 21.4607 6.01646 21.6057 5.87149 21.6057C2.24711 23.4182 0 27.0433 0 31.1035C0 36.9761 4.78417 41.7613 10.6556 41.7613C16.5271 41.7613 21.3113 36.9761 21.3113 31.1035C21.3113 27.1158 19.0642 23.4907 15.4398 21.6782ZM10.6556 35.6711C8.40854 35.6711 6.59636 33.8585 6.59636 31.611C6.59636 29.5084 8.26356 27.6958 10.2932 27.5508V3.91512C10.2932 3.69761 10.4382 3.55261 10.6556 3.55261C10.8731 3.55261 11.0181 3.69761 11.0181 3.91512V27.5508C13.1202 27.6958 14.7149 29.5084 14.7149 31.611C14.7149 33.8585 12.9028 35.6711 10.6556 35.6711Z" fill="white"/>
</svg>
