<svg width="38" height="37" viewBox="0 0 38 37" fill="none" xmlns="http://www.w3.org/2000/svg">
<path d="M16.5272 36.6136C17.6145 36.6136 18.4844 35.8886 18.4844 35.0185V25.4482C16.2373 25.3757 14.3526 24.8682 12.9753 23.8532C12.6854 23.6357 12.3954 23.4182 12.1055 23.1282L14.4251 34.946C14.57 35.8886 15.4399 36.6136 16.5272 36.6136Z" fill="white"/>
<path d="M19.2817 25.4483V35.0185C19.2817 35.8886 20.1516 36.6136 21.2389 36.6136C22.3262 36.6136 23.196 35.8886 23.196 35.0185L25.5156 23.2007C25.2257 23.4907 25.0082 23.7082 24.6458 23.9257C23.341 24.8682 21.4563 25.3758 19.2817 25.4483Z" fill="white"/>
<path d="M18.9192 8.12024C21.161 8.12024 22.9785 6.30247 22.9785 4.06012C22.9785 1.81778 21.161 0 18.9192 0C16.6773 0 14.8599 1.81778 14.8599 4.06012C14.8599 6.30247 16.6773 8.12024 18.9192 8.12024Z" fill="white"/>
<path d="M11.453 14.7905C11.0906 15.9505 10.8006 17.1105 10.8006 18.3431C10.8006 23.2732 14.6425 25.0858 18.8467 25.0858C23.051 25.0858 26.8928 23.3457 26.8928 18.3431C26.8928 17.183 26.6754 15.9505 26.2405 14.7905L25.9505 13.7029L24.7907 9.42529H36.1712C36.9686 9.42529 37.621 8.77277 37.621 7.97525C37.621 7.17773 36.9686 6.52521 36.1712 6.52521H22.4711C21.6737 7.75774 20.2965 8.55527 18.7017 8.55527C17.107 8.55527 15.7298 7.75774 14.9324 6.52521H1.44975C0.652387 6.52521 0 7.17773 0 7.97525C0 8.77277 0.652387 9.42529 1.44975 9.42529H12.8303L11.6705 13.7029L11.453 14.7905Z" fill="white"/>
</svg>
