<svg width="207" height="512" viewBox="0 0 207 512" fill="none" xmlns="http://www.w3.org/2000/svg">
<path d="M0 176.228V295.071C0 306.301 9.10378 315.404 20.3335 315.404C31.5632 315.404 40.667 306.301 40.667 295.071V176.228L20.3335 162.75L0 176.228Z" fill="#FFB69E"/>
<path d="M166 175.228V294.071C166 305.301 175.104 314.404 186.334 314.404C197.563 314.404 206.667 305.301 206.667 294.071V175.228L186.334 161.75L166 175.228Z" fill="#FFB69E"/>
<path d="M133.195 512C119.719 512 108.795 501.076 108.795 487.6V292.571C108.795 279.096 119.719 268.171 133.195 268.171C146.671 268.171 157.595 279.096 157.595 292.571V487.6C157.594 501.076 146.67 512 133.195 512Z" fill="#414B82"/>
<path d="M73.8521 512C60.3763 512 49.4521 501.076 49.4521 487.6V292.571C49.4521 279.096 60.3763 268.171 73.8521 268.171C87.3279 268.171 98.2522 279.096 98.2522 292.571V487.6C98.2522 501.076 87.3279 512 73.8521 512Z" fill="#414B82"/>
<path d="M103.527 84.2814C126.801 84.2814 145.668 65.4144 145.668 42.1407C145.668 18.867 126.801 0 103.527 0C80.2532 0 61.3862 18.867 61.3862 42.1407C61.3862 65.4144 80.2532 84.2814 103.527 84.2814Z" fill="#FFB69E"/>
<path d="M124.185 97.7141H82.7998L81.9543 102.117C79.3645 115.595 89.6926 128.096 103.417 128.096C116.866 128.096 127.124 116.065 124.998 102.785L124.185 97.7141Z" fill="#FFB69E"/>
<path d="M206.975 145.59C206.843 119.191 184.92 97.7131 158.107 97.7131H124.185C124.191 97.8203 124.209 97.9235 124.214 98.0307C124.715 109.211 114.34 118.735 103.51 118.735C91.9024 118.735 83.3076 109.248 82.8057 98.0307C82.8007 97.9245 82.8037 97.8193 82.8007 97.7131H48.9482C22.0907 97.7131 0.133221 119.19 0.000976562 145.59V145.693V176.228H40.667V145.767C40.7051 141.897 44.6443 138.38 48.9482 138.38H49.4532V292.571H157.594L157.405 138.38H158.106C162.366 138.38 166.264 141.892 166.308 145.758V176.228H206.974V145.693C206.975 145.659 206.975 145.624 206.975 145.59Z" fill="#64AFFF"/>
</svg>
