<svg width="229" height="406" viewBox="0 0 229 406" fill="none" xmlns="http://www.w3.org/2000/svg">
<path fill-rule="evenodd" clip-rule="evenodd" d="M111.963 43.0418C117.987 46.6747 123.905 48.4299 126.684 47.7134C133.65 45.9166 134.291 20.416 128.9 10.3629C123.51 0.309756 95.7981 -4.07202 94.4013 15.8465C93.9165 22.7595 96.8177 28.9289 101.104 33.9631L93.4182 69.8061H115.744L111.963 43.0418Z" fill="#B28B67"/>
<path fill-rule="evenodd" clip-rule="evenodd" d="M101.79 11.169C114.673 11.2613 123.637 10.7181 128.767 9.30748C128.533 4.93873 123.994 0 112.023 0C98.7038 0 91.5578 7.76756 91.5578 16.7535C91.5578 24.9631 96.8397 34.9615 100.86 35.3684C101.902 35.1404 102.791 33.8847 103.676 32.1545C102.02 31.3485 100.86 29.4488 100.86 26.9917C100.86 24.6298 102.943 22.3379 105.511 22.3379C106.448 22.3379 107.321 22.6429 108.051 23.1449C109.738 20.4253 111.854 18.3939 114.814 18.615L112.953 13.0305L101.79 12.0997V11.169Z" fill="#191847"/>
<path fill-rule="evenodd" clip-rule="evenodd" d="M83 172.183L119.255 296.651L145.707 388.39H165L136.891 172.183H83Z" fill="#AFB9C5"/>
<path fill-rule="evenodd" clip-rule="evenodd" d="M73.304 172.183C72.466 236.335 69.606 271.325 68.726 277.154C67.845 282.983 54.5322 320.061 28.7864 388.39H48.7727C81.549 322.84 99.846 285.761 103.663 277.154C107.479 268.547 119.259 233.556 137 172.183H73.304Z" fill="#C5CFD6"/>
<path fill-rule="evenodd" clip-rule="evenodd" d="M27 406L28 385.455H49C63.936 395.728 88 402.087 88 402.087V406H50L37 404.043V406H27Z" fill="#E5E5E5"/>
<path fill-rule="evenodd" clip-rule="evenodd" d="M143 406L144 385.455H165C179.936 395.728 204 402.087 204 402.087V406H166L153 404.043V406H143Z" fill="#E5E5E5"/>
<path fill-rule="evenodd" clip-rule="evenodd" d="M22.1355 215.879C25.0823 209.938 39.8055 133.482 39.8055 133.482L61.8253 133.564C61.8253 133.564 36.6689 214.555 35.1176 218.375C33.1025 223.337 36.5254 230.547 38.8465 235.436C39.2056 236.193 39.5382 236.894 39.8204 237.522C36.5998 238.953 35.0528 237.223 33.4218 235.398C31.5796 233.337 29.6303 231.156 25.0416 233.278C23.2688 234.097 21.5912 235.066 19.9523 236.012C14.2908 239.283 9.08997 242.286 2.01482 237.948C0.893154 237.261 -0.335958 234.671 2.6338 232.648C10.0327 227.607 20.6949 218.783 22.1355 215.879ZM207.589 186.089L179.102 158.475L169.642 174.742L199.263 192.096C206.691 203.723 211.053 208.746 212.349 207.167C213.443 205.836 212.942 204.375 212.481 203.031C212.121 201.984 211.785 201.007 212.246 200.214C213.299 198.404 219.246 199.44 224.847 200.664C230.449 201.887 229.153 199.153 227.962 197.726C222.668 193.481 215.877 189.602 207.589 186.089Z" fill="#B28B67"/>
<path fill-rule="evenodd" clip-rule="evenodd" d="M106.903 71.411L115.599 69.9289C129.297 118.045 199.676 150.842 203.997 168.829C205.581 175.425 200.804 178.76 203.271 180.77L191.969 188.991C190.056 186.772 185.971 190.831 177.442 187.991C168.912 185.153 106.903 128.384 106.903 71.411Z" fill="#4393CF"/>
<path fill-rule="evenodd" clip-rule="evenodd" d="M91.1377 61.3446C89.0875 61.2022 87.3089 62.7493 87.1647 64.8004L86.7331 70.9272C70.3685 83.4414 29.81 120.835 19.2409 190.447C18.1307 197.76 20.1385 201.676 21.7427 204.805C22.84 206.946 23.7486 208.718 23.3411 210.958L38.1329 215.015C38.1329 213.362 39.9971 212.104 42.4022 210.481C45.8994 208.122 50.5402 204.991 52.2562 198.751C53.8827 192.836 56.2643 185.448 59.1099 177.229C59.3787 188.114 61.4559 198.124 65.9815 206.415C77.2717 227.101 142.515 204.416 149.332 183.313C152.969 172.053 147.807 162.599 140.981 150.096C132.317 134.224 120.97 113.439 121.53 77.8078L122.274 67.2401C122.419 65.189 120.873 63.4108 118.823 63.2684L91.1377 61.3446Z" fill="#3E8FCC"/>
</svg>
