<svg width="239" height="512" viewBox="0 0 239 512" fill="none" xmlns="http://www.w3.org/2000/svg">
<path d="M67.0002 510.7C62.1002 509.1 53.7002 500.5 52.2002 495.4C51.3002 492.2 51.0002 450.3 51.0002 314.1C51.0002 122.1 51.4002 134.6 45.7002 139L43.1002 141.1L42.8002 220.3L42.5002 299.5L40.0002 304C32.9002 316.6 16.2002 318.7 6.60023 308C4.70023 305.9 2.70023 302.4 2.10023 300.3C0.600226 295.2 0.600226 143.4 2.00023 135.9C5.60023 117 21.1002 101.1 40.0002 97.1C44.0002 96.2 60.4002 96 99.0002 96.2C151.7 96.5 152.6 96.5 158 98.7C168.5 103 177.7 112.4 184 125.5C186.1 129.9 191.1 142.7 195 154C199 165.3 210.3 196.9 220.1 224.2C230 251.5 238.4 275.4 238.7 277.2C240.5 288.4 230 300 218.3 300C208.6 299.9 201.9 294.8 198 284.3C194.4 274.7 172 213 169.3 205.2C167.9 201.2 166.7 198 166.5 198.2C166.4 198.4 169.3 216.3 173.1 238C188.8 329.3 188.6 328.4 186.7 332.5C184.4 337.4 180.2 339 169.5 339H161V414.8C161 463.8 160.6 491.8 160 494.2C158.3 500.1 153.1 506.2 147 509.3C139.4 513.2 130.6 512.9 123.4 508.4C117.9 505.1 112.7 497.4 111.6 491.3C111.3 489.2 111 454.1 111 413.3V339H108H105V316.5V294H102.5H100V393.8C100 488.2 99.9002 493.7 98.1002 497.5C95.8002 502.6 90.7002 507.7 85.5002 510.1C81.0002 512.2 72.6002 512.4 67.0002 510.7Z" fill="#5E6D99"/>
<path d="M125.2 509.4C119.9 506.8 116.9 503.6 113.4 497C111.6 493.7 111.5 489.5 111.2 416.3L110.9 339H108H105V316.5V294H78.0002H51.0002V215.5C51.0002 130.4 51.3002 134.6 45.7002 139L43.1002 141.1L42.8002 220.3L42.5002 299.5L40.0002 304C32.9002 316.6 16.2002 318.7 6.60023 308C4.70023 305.9 2.70023 302.4 2.10023 300.3C0.600226 295.2 0.600226 143.4 2.00023 135.9C5.60023 117 21.1002 101.1 40.0002 97.1C44.0002 96.2 60.4002 96 99.0002 96.2C151.7 96.5 152.6 96.5 158 98.7C168.5 103 177.7 112.4 184 125.5C186.1 129.9 191.1 142.7 195 154C199 165.3 210.3 196.9 220.1 224.2C230 251.5 238.4 275.4 238.7 277.2C240.5 288.4 230 300 218.3 300C208.6 299.9 201.9 294.8 198 284.3C194.4 274.7 172 213 169.3 205.2C167.9 201.2 166.7 198 166.5 198.2C166.4 198.4 169.3 216.3 173.1 238C188.8 329.3 188.6 328.4 186.7 332.5C184.4 337.4 180.2 339 169.5 339H161V414.8C161 463.8 160.6 491.8 160 494.2C156 508.5 138.6 516.1 125.2 509.4Z" fill="#4061CA"/>
<path d="M13.5002 313.2C8.40023 310.8 3.40023 305.2 2.10023 300.3C0.600226 295.2 0.600226 143.4 2.00023 135.9C4.70023 121.7 15.2002 107.7 27.6002 101.6C38.3002 96.4 41.0002 96 74.3002 96H105V195V294H78.0002H51.0002V215.5C51.0002 130.4 51.3002 134.6 45.7002 139L43.1002 141.1L42.8002 220.3L42.5002 299.5L40.0002 304C34.7002 313.5 22.8002 317.6 13.5002 313.2Z" fill="#62ADFC"/>
<path d="M125.2 509.4C119.9 506.8 116.9 503.6 113.4 497C111.6 493.7 111.5 489.5 111.2 416.3L110.9 339H136H161V414.8C161 463.8 160.6 491.8 160 494.2C156 508.5 138.6 516.1 125.2 509.4Z" fill="#FCB49C"/>
<path d="M13.5 313.2C8.4 310.8 3.4 305.2 2.1 300.3C1.4 297.8 1 276.1 1 239.3V182H22.1H43.1L42.8 240.8L42.5 299.5L40 304C34.7 313.5 22.8 317.6 13.5 313.2Z" fill="#FCB49C"/>
<path d="M209.5 298.1C207.2 297.1 204.2 294.9 202.8 293.2C199.8 289.6 200 290.1 184 246C177.5 228.1 171.7 212.2 171.1 210.6C170.5 209 170.1 207.5 170.4 207.3C171.7 206 208.4 194 209 194.7C210.2 196 238 273.5 238.6 277.2C239.9 284.9 234.7 294 226.9 298.1C222.1 300.5 214.8 300.5 209.5 298.1Z" fill="#FCB49C"/>
<path d="M95.0002 83.6C66.5002 75.6 54.2002 43.7 70.0002 19C85.7002 -5.5 122.8 -6.3 139.9 17.6C145.7 25.7 147.5 31.7 147.5 43C147.5 51.6 147.2 53.1 144.3 59.3C135.2 78.5 114.1 88.9 95.0002 83.6Z" fill="#FCB49C"/>
</svg>
