<svg xmlns="http://www.w3.org/2000/svg" xmlns:xlink="http://www.w3.org/1999/xlink" width="355.201" height="245.27" viewBox="0 0 355.201 245.27">
  <defs>
    <linearGradient id="linear-gradient" x1="0.5" y1="1" x2="0.5" gradientUnits="objectBoundingBox">
      <stop offset="0" stop-color="gray" stop-opacity="0.251"/>
      <stop offset="0.54" stop-color="gray" stop-opacity="0.122"/>
      <stop offset="1" stop-color="gray" stop-opacity="0.102"/>
    </linearGradient>
    <linearGradient id="linear-gradient-2" x1="0.5" y1="1" x2="0.5" y2="0" xlink:href="#linear-gradient"/>
  </defs>
  <g id="Group_36" data-name="Group 36" transform="translate(-16.709 -256.176)">
    <path id="Path" d="M22.474,53.531h-1.5c-3.4-14.5-10.3-38.4-20.8-52.4a.623.623,0,0,1,.2-1c.4-.2.8-.2,1,.2C12.074,14.631,19.074,39.031,22.474,53.531Z" transform="translate(59.39 347.948)" fill="#fff"/>
    <path id="Path-2" data-name="Path" d="M.8,14.2a.789.789,0,0,1-.8-.8V.8A.789.789,0,0,1,.8,0a.736.736,0,0,1,.8.8V13.4C1.5,13.9,1.2,14.2.8,14.2Z" transform="translate(72.485 360.425)" fill="#fff"/>
    <path id="Path-3" data-name="Path" d="M9.8,13.4H8C3.5,6.7.2,1.1.1,1.1A.714.714,0,0,1,.4.1a.714.714,0,0,1,1,.3C1.5.4,5.1,6.4,9.8,13.4Z" transform="translate(31.8 387.231)" fill="#fff"/>
    <path id="Path-4" data-name="Path" d="M15.3,1.1C8.6,10.9,4.1,24.8,1.5,34.7H0C2.6,24.7,7.2,10.3,14.1.3a.775.775,0,0,1,1-.2C15.4.2,15.5.7,15.3,1.1Z" transform="translate(286.755 366.439)" fill="#fff"/>
    <path id="Path-5" data-name="Path" d="M.781,11.281a.864.864,0,0,1-.6-.3.792.792,0,0,1,.1-1.1l11.5-9.7a.792.792,0,0,1,1.1.1.792.792,0,0,1-.1,1.1l-11.5,9.7A1.689,1.689,0,0,1,.781,11.281Z" transform="translate(294.727 370.539)" fill="#fff"/>
    <path id="Path_12" data-name="Path 12" d="M88.346,590.005a5.919,5.919,0,0,0-3.065.669c-1.882,1.217-1.4,4.321.585,5.386a8.7,8.7,0,0,0,4.45.6,16.511,16.511,0,0,1,6.025.524,27.132,27.132,0,0,1,4.589,2.541,20.482,20.482,0,0,0,11.094,2.7,4.14,4.14,0,0,0,1.924-.435,2.9,2.9,0,0,0,1.24-2.7C114.688,589.518,94.828,589.821,88.346,590.005Z" transform="translate(-67.387 -101)" fill="#b3bbbb" fill-rule="evenodd"/>
    <path id="Path_13" data-name="Path 13" d="M380.713,571.467c-2.9,5.964-8.55,10.265-14.7,12.786-1.964.807-4.063,1.494-5.59,2.968s-2.265,4.044-.97,5.726a5.7,5.7,0,0,0,3.243,1.75c10.432,2.626,21.29-2.038,30.41-7.73,2.894-1.808,5.786-3.8,7.713-6.61,2.43-3.546,3.059-8.021,3.071-12.316.015-6.3-1.7-13.4-7.2-16.5-4.146-2.337-13.243-4-14.6,1.116-.579,2.177,1.083,6.5.969,8.953A25.1,25.1,0,0,1,380.713,571.467Z" transform="translate(-31.983 -102)" fill="#b3bbbb" fill-rule="evenodd"/>
    <path id="Path_14" data-name="Path 14" d="M56.771,559.558c0,.265-1.072.479-2.4.479s-2.394-.214-2.394-.479,1.072-.479,2.394-.479S56.771,559.293,56.771,559.558Z" transform="translate(-24 -101)" fill="#b3bbbb" fill-rule="evenodd"/>
    <path id="Path_15" data-name="Path 15" d="M81.677,569.138c0,.265-1.071.479-2.394.479s-2.4-.214-2.4-.479,1.072-.479,2.4-.479S81.677,568.873,81.677,569.138Z" transform="translate(-20.857 -101)" fill="#b3bbbb" fill-rule="evenodd"/>
    <path id="Path_16" data-name="Path 16" d="M168.851,589.255c0,.265-1.072.479-2.4.479s-2.395-.214-2.395-.479,1.071-.479,2.395-.479S168.851,588.99,168.851,589.255Z" transform="translate(-17.939 -101)" fill="#b3bbbb" fill-rule="evenodd"/>
    <path id="Path_17" data-name="Path 17" d="M106.584,548.063c0,.265-1.072.479-2.395.479s-2.4-.214-2.4-.479,1.073-.479,2.4-.479S106.584,547.8,106.584,548.063Z" transform="translate(-20.023 -101)" fill="#b3bbbb" fill-rule="evenodd"/>
    <path id="Path_18" data-name="Path 18" d="M147.776,572.012c0,.265-1.073.479-2.4.479s-2.394-.214-2.394-.479,1.072-.479,2.394-.479S147.776,571.747,147.776,572.012Z" transform="translate(-18.644 -101)" fill="#b3bbbb" fill-rule="evenodd"/>
    <path id="Path_19" data-name="Path 19" d="M268.477,570.1c0,.793-3,1.437-6.707,1.437s-6.7-.644-6.7-1.437,3-1.437,6.7-1.437S268.477,569.3,268.477,570.1Z" transform="translate(-14.699 -101)" fill="#b3bbbb" fill-rule="evenodd"/>
    <path id="Path_20" data-name="Path 20" d="M115.206,542.315c0,1.322-3.646,2.4-8.143,2.4s-8.143-1.073-8.143-2.4,3.646-2.394,8.143-2.394S115.206,540.992,115.206,542.315Z" transform="translate(-22.009 -84.184)" fill="#b3bbbb" fill-rule="evenodd"/>
    <path id="Path_21" data-name="Path 21" d="M354.692,561.475c0,.264-1.072.478-2.395.478s-2.395-.214-2.395-.478,1.072-.48,2.395-.48S354.692,561.21,354.692,561.475Z" transform="translate(-9.983 -101)" fill="#b3bbbb" fill-rule="evenodd"/>
    <path id="Path_23" data-name="Path 23" d="M231.117,572.491c0,2.116-7.935,3.831-17.723,3.831s-17.721-1.715-17.721-3.831,7.934-3.832,17.721-3.832S231.117,570.375,231.117,572.491Z" transform="translate(-33.314 -105)" fill="#b3bbbb" fill-rule="evenodd"/>
    <path id="Path_24" data-name="Path 24" d="M323.079,572.491c0,2.116-7.934,3.831-17.722,3.831s-17.722-1.715-17.722-3.831,7.935-3.832,17.722-3.832S323.079,570.375,323.079,572.491Z" transform="translate(-12.919 -101)" fill="#b3bbbb" fill-rule="evenodd"/>
    <path id="Path_27" data-name="Path 27" d="M137,513h1.641c3.794-12.865,13.638-40.824,31.071-54.6a.787.787,0,0,0,.1-1.114.811.811,0,0,0-1.128-.1C150.844,471.366,140.794,500.135,137,513Z" transform="translate(-18.47 -90.071)" fill="#fff"/>
    <path id="Path_28" data-name="Path 28" d="M153,513h1.912c4.025-5.371,11.271-12.769,23.649-18.545a.832.832,0,0,0,.4-1.013.822.822,0,0,0-1.007-.4C164.472,499.319,156.925,507.426,153,513Z" transform="translate(-18.003 -91.495)" fill="#fff"/>
    <path id="Path_29" data-name="Path 29" d="M167,491a.911.911,0,0,0,1-.808v-8.384a.9.9,0,0,0-1-.808c-.625,0-1,.3-1,.808v8.384A1.1,1.1,0,0,0,167,491Z" transform="translate(-17.915 -89.57)" fill="#fff"/>
    <path id="Path_30" data-name="Path 30" d="M203.686,514a.652.652,0,0,0,.563-.308l5.628-8.529a.744.744,0,0,0-.188-1.028.61.61,0,0,0-.938.206l-5.628,8.529a.743.743,0,0,0,.188,1.027C203.4,513.9,203.592,514,203.686,514Z" transform="translate(-16.596 -91.929)" fill="#5e8bac"/>
    <path id="Path_31" data-name="Path 31" d="M210.743,514a.743.743,0,0,0,.5-.216l3.515-3.341a1.036,1.036,0,0,0,.1-1.185.855.855,0,0,0-1.1-.108l-3.515,3.341a1.037,1.037,0,0,0-.1,1.186A.849.849,0,0,0,210.743,514Z" transform="translate(-16.397 -92.085)" fill="#5e8bac"/>
    <path id="Path_34" data-name="Path 34" d="M66.8,512.5H65.3C61.9,498,55,474.1,44.5,460.1a.623.623,0,0,1,.2-1c.4-.2.8-.2,1,.2C56.4,473.6,63.4,498,66.8,512.5Z" transform="translate(-24 -90.122)" fill="#fff"/>
    <path id="Path_35" data-name="Path 35" d="M68.6,484.9a.789.789,0,0,1-.8-.8V471.5a.789.789,0,0,1,.8-.8.736.736,0,0,1,.8.8v12.6C69.3,484.6,69,484.9,68.6,484.9Z" transform="translate(-21.183 -88.765)" fill="#fff"/>
    <path id="Path_37" data-name="Path 37" d="M344.1,479c-6.7,9.8-11.2,23.7-13.8,33.6h-1.5c2.6-10,7.2-24.4,14.1-34.4a.775.775,0,0,1,1-.2C344.2,478.1,344.3,478.6,344.1,479Z" transform="translate(-10.07 -90.916)" fill="#fff"/>
    <path id="Path_38" data-name="Path 38" d="M339.4,492.6a.864.864,0,0,1-.6-.3.792.792,0,0,1,.1-1.1l11.5-9.7a.781.781,0,0,1,1,1.2l-11.5,9.7A1.689,1.689,0,0,1,339.4,492.6Z" transform="translate(-10.07 -89.683)" fill="#fff"/>
    <g id="Group_5" data-name="Group 5" transform="translate(36 256.176)">
      <path id="Path_62" data-name="Path 62" d="M1093.465,539.44h14.519a54.636,54.636,0,0,1-4.817,22.158,53.505,53.505,0,0,1-10.8,15.248V552.821h1.1Z" transform="translate(-817.473 -394.865)" fill="#4393cf" opacity="0.1"/>
      <path id="Path_63" data-name="Path 63" d="M1111.1,451.113H1096.57V419.55h7.861A84.952,84.952,0,0,1,1111.1,451.113Z" transform="translate(-820.578 -311.345)" fill="#4393cf" opacity="0.1"/>
      <g id="Group_4" data-name="Group 4" transform="translate(0)">
        <g id="Group_3" data-name="Group 3" transform="translate(0)">
          <ellipse id="Ellipse_1" data-name="Ellipse 1" cx="25.413" cy="4.273" rx="25.413" ry="4.273" transform="translate(71.001 222.904)" fill="#4393cf" opacity="0.1"/>
          <ellipse id="Ellipse_2" data-name="Ellipse 2" cx="31.711" cy="4.273" rx="31.711" ry="4.273" transform="translate(204.565 223.024)" fill="#4393cf" opacity="0.1"/>
          <path id="Path_49" data-name="Path 49" d="M59.542,396.83H86.012V434.6H61.48c-.065.388-.128.778-.2,1.169H86.012v30.458c-.044-.014-.083-.03-.125-.046-.7-.289-1.393-.6-2.086-.923l-.443-.21q-1.043-.516-2.086-1.092c-.243-.134-.485-.273-.725-.415a43.745,43.745,0,0,1-10.4-8.507c-.089-.09-.172-.186-.261-.273-.423-.48-.837-.966-1.239-1.463l-.443-.546c-.475-.609-.934-1.234-1.38-1.867-.065-.093-.128-.186-.2-.273a41.242,41.242,0,0,1-4.486-8.491c-.037-.09-.068-.188-.1-.273q-.537-1.447-.952-2.921c-.12-.412-.235-.819-.334-1.248-.037-.126-.068-.248-.1-.371C59.175,431.249,59,424.962,59,418.718v-2.184c0-2.525.029-5.067.07-7.606,0-.658.026-1.313.039-1.974q.055-2.514.156-5.029c.016-.467.037-.931.06-1.4q0-.4.039-.8C59.428,398.755,59.48,397.791,59.542,396.83Z" transform="translate(-56.058 -293.062)" fill="#4393cf" opacity="0.1"/>
          <path id="Path_50" data-name="Path 50" d="M121.419,191.659H106.9a115.183,115.183,0,0,1,7.722-11.128c2.157-2.774,4.434-5.477,6.8-8.081Z" transform="translate(-91.466 -141.374)" fill="#4393cf" opacity="0.1"/>
          <path id="Path_51" data-name="Path 51" d="M87.786,247.09V286.8H61.4c0-.115.018-.232.026-.347.023-.314.047-.628.073-.939.029-.366.06-.734.094-1.092s.07-.794.11-1.19.076-.8.12-1.193.083-.792.13-1.185.089-.792.138-1.185c.039-.328.081-.652.123-.98.06-.461.123-.926.19-1.384a1.332,1.332,0,0,1,.029-.2,98.332,98.332,0,0,1,1.943-9.971,76.139,76.139,0,0,1,3.273-10.1,77.177,77.177,0,0,1,4.924-9.927Z" transform="translate(-57.832 -190.352)" fill="#4393cf" opacity="0.1"/>
          <path id="Path_52" data-name="Path 52" d="M186.8,159.328v41.193h57.084V159.328Zm0,42.465v35.375c.327.077.65.152.972.214.437.1.872.182,1.317.256.084.015.171.03.263.039.174.033.353.06.527.086.44.068.877.125,1.317.17.208.024.419.045.629.063l.508.045h0c.277.024.55.042.822.051.169,0,.337.018.511.024h1.878a6.4,6.4,0,0,0,.677-.024h.016a3.145,3.145,0,0,0,.471-.024.982.982,0,0,0,.132,0,2.407,2.407,0,0,0,.39-.021h.092l.882-.077c.29-.03.582-.068.877-.1l.6-.08a47.308,47.308,0,0,0,7.229-1.739c5.325-1.679,10.534-4.029,15.856-5.75,6.881-2.218,14.484-3.308,21.133-.6V201.792Zm57.084-88.324V58.629a65.339,65.339,0,0,0-18.547,2.46C210.882,65.194,197.913,74.1,186.8,85.475v27.99h2.865v1.271H186.8v43.319h57.084V114.74H201.429v-1.271Zm73.322-18.524a21.655,21.655,0,0,1-10.347-3.4c-6.149-3.782-11.06-9.621-16.548-14.549A71.319,71.319,0,0,0,250.26,59v54.468h81.49l.2-.241Zm7.423-1.489,7.871,9.767V90.895a28.516,28.516,0,0,0-7.861,2.549Zm7.871,152.5V201.792H315.728c-.045-.188-.09-.378-.142-.569.05.191.092.381.14.569H250.27v31.936c.621.521,1.235,1.069,1.843,1.626h0c.656.6,1.3,1.224,1.954,1.84l.656.613c.313.3.629.6.948.875q.948.869,1.914,1.715c.319.3.645.566.969.846a131.663,131.663,0,0,0,16.23,12q1.9,1.191,3.842,2.326c.861.5,1.728.992,2.6,1.471q1.959,1.081,3.95,2.084h0a132.64,132.64,0,0,0,38.448,12.664q4.421.738,8.877,1.161v-27h.263ZM250.27,114.74v43.316h82.241V114.74Zm0,44.588v41.193h82.241V159.328Zm88.624-68.487v13.751l10.046-12.465a97.882,97.882,0,0,0-10.046-1.3Zm0,68.5v41.178h79.989V159.328Zm79.7,89.878.282-47.429H338.894v71.634a126.889,126.889,0,0,0,15.458-.208h.089q3.687-.262,7.339-.762h.055a123.01,123.01,0,0,0,37.71-11.378m34.761-94.967c-.3-.8-.614-1.6-.932-2.382-.6-1.489-1.225-2.936-1.872-4.383h-6.241v41.175h15.779a98.924,98.924,0,0,0-6.726-34.425Zm-9.046,35.7V242.6a58.525,58.525,0,0,0,10.9-16.63,63.455,63.455,0,0,0,4.861-24.17Zm0-54.468v10.72h5.657a120.244,120.244,0,0,0-5.649-10.735ZM371.014,98.923c-.416-.179-.832-.36-1.251-.536a104.523,104.523,0,0,0-13.512-4.592l-15.374,19.078h0l-.295.354.2.244H395.5a113.069,113.069,0,0,0-24.475-14.564ZM397.1,114.755H340.016l-1.122,1.161v42.14h80V137.644a120.936,120.936,0,0,0-21.786-22.9Z" transform="translate(-150.527 -58.624)" fill="#4393cf" opacity="0.1"/>
          <path id="Path_53" data-name="Path 53" d="M87.786,320.46v19.682H61.4c0-.115.018-.232.026-.347.023-.314.047-.628.073-.939.029-.366.06-.734.094-1.092s.07-.794.11-1.19.076-.8.12-1.193.083-.792.13-1.185.089-.792.138-1.185c.039-.328.081-.652.123-.98.06-.461.123-.926.19-1.384a1.332,1.332,0,0,1,.029-.2,98.332,98.332,0,0,1,1.943-9.971Z" transform="translate(-57.832 -242.391)" fill="#4393cf" opacity="0.1"/>
          <path id="Path_54" data-name="Path 54" d="M59.542,396.83H86.012V434.6H61.48c-.065.388-.128.778-.2,1.169H86.012v30.458c-.044-.014-.083-.03-.125-.046-.7-.289-1.393-.6-2.086-.923l-.443-.21q-1.043-.516-2.086-1.092c-.243-.134-.485-.273-.725-.415a43.745,43.745,0,0,1-10.4-8.507c-.089-.09-.172-.186-.261-.273-.423-.48-.837-.966-1.239-1.463l-.443-.546c-.475-.609-.934-1.234-1.38-1.867-.065-.093-.128-.186-.2-.273a41.242,41.242,0,0,1-4.486-8.491c-.037-.09-.068-.188-.1-.273q-.537-1.447-.952-2.921c-.12-.412-.235-.819-.334-1.248-.037-.126-.068-.248-.1-.371C59.175,431.249,59,424.962,59,418.718v-2.184c0-2.525.029-5.067.07-7.606,0-.658.026-1.313.039-1.974q.055-2.514.156-5.029c.016-.467.037-.931.06-1.4q0-.4.039-.8C59.428,398.755,59.48,397.791,59.542,396.83Z" transform="translate(-56.058 -293.062)" fill="#4393cf" opacity="0.1"/>
          <path id="Path_55" data-name="Path 55" d="M159.462,178.6V212.63h-19.9V178.6H142.4V167.08h11.648V178.6Z" transform="translate(-103.287 -116.616)" fill="#4393cf" opacity="0.1"/>
          <rect id="Rectangle_6" data-name="Rectangle 6" width="19.899" height="37.766" transform="translate(36.275 101.71)" fill="#4393cf" opacity="0.1"/>
          <path id="Path_56" data-name="Path 56" d="M186.8,539.44h19.9v31.4a49.925,49.925,0,0,1-7.159,1.592l-.595.076c-.292.035-.582.065-.868.1s-.584.052-.874.071h-.091c-.125,0-.261.016-.383.019H196.6c-.156,0-.313.016-.469.022h0c-.222.014-.443.016-.67.019h-1.847l-.5-.019c-.261,0-.542-.03-.814-.049h0l-.5-.038-.623-.06c-.438-.041-.874-.093-1.3-.156l-.522-.076-.261-.038c-.436-.071-.866-.147-1.3-.235-.321-.057-.639-.128-.962-.2Z" transform="translate(-150.527 -395.169)" fill="#4393cf" opacity="0.1"/>
          <rect id="Rectangle_7" data-name="Rectangle 7" width="16.41" height="38.045" transform="translate(165.65 58.523)" fill="#4393cf" opacity="0.1"/>
          <path id="Path_57" data-name="Path 57" d="M462.032,338.19v37.769H380.58V359.668h43.385v9.61H445.62V338.19Z" transform="translate(-280.274 -236.48)" fill="#4393cf" opacity="0.1"/>
          <path id="Path_58" data-name="Path 58" d="M509.53,578.545h-.261v24.776q-4.408-.39-8.789-1.062a138.846,138.846,0,0,1-38.093-11.636q-5.25-2.473-10.286-5.4a130.835,130.835,0,0,1-16.076-11.005q-1.92-1.54-3.79-3.151c-.863-.745-1.721-1.51-2.59-2.252-.6-.51-1.21-1.013-1.826-1.493v-29.27h64.823c-.044-.175-.089-.349-.136-.521.05.172.1.347.141.521H509.27v40.477C509.358,578.532,509.444,578.54,509.53,578.545Z" transform="translate(-327.513 -388.913)" fill="#4393cf" opacity="0.1"/>
          <path id="Path_59" data-name="Path 59" d="M873.913,205.959H863.22v-3.478h4.794V192.12q.623.238,1.241.489v9.872h4.658Z" transform="translate(-648.657 -152.415)" fill="#4393cf" opacity="0.1"/>
          <path id="Path_60" data-name="Path 60" d="M826.6,286.8H774.1l.018.014-.023-.014H764.36V248.758h2.759v28.121h12.61V260.225h10.416V247.09h10.693v13.146h10.417V276.89H826.6Z" transform="translate(-575.01 -190.351)" fill="#4393cf" opacity="0.1"/>
          <path id="Path_61" data-name="Path 61" d="M764.36,396.82v37.769H826.6V396.82Zm79.134,82.227.086-29.9H826.6V435.774H764.36v65.66a135.723,135.723,0,0,0,15.309-.191h.089q3.651-.24,7.269-.7h.055a129.148,129.148,0,0,0,37.347-10.432" transform="translate(-575.01 -286.62)" fill="#4393cf" opacity="0.1"/>
          <rect id="Rectangle_8" data-name="Rectangle 8" width="8.792" height="11.928" transform="translate(173.297 69.337)" fill="#4393cf" opacity="0.1"/>
          <rect id="Rectangle_9" data-name="Rectangle 9" width="8.792" height="2.747" transform="translate(173.297 95.91)" fill="#4393cf" opacity="0.1"/>
          <rect id="Rectangle_10" data-name="Rectangle 10" width="8.792" height="8.013" transform="translate(173.297 100.353)" fill="#4393cf" opacity="0.1"/>
          <rect id="Rectangle_11" data-name="Rectangle 11" width="8.792" height="11.928" transform="translate(173.297 123.164)" fill="#4393cf" opacity="0.1"/>
          <rect id="Rectangle_12" data-name="Rectangle 12" width="8.792" height="11.928" transform="translate(173.297 150.078)" fill="#4393cf" opacity="0.1"/>
          <path id="Path_64" data-name="Path 64" d="M715.209,663.324a1.383,1.383,0,0,1,.261.016h-.261v2.771H706.42V654.17h8.789Z" transform="translate(-533.121 -477.177)" fill="#4393cf" opacity="0.1"/>
          <path id="Path_65" data-name="Path 65" d="M715.209,744.71v9.214q-4.408-.39-8.789-1.062V744.71Z" transform="translate(-533.123 -539.53)" fill="#4393cf" opacity="0.1"/>
          <rect id="Rectangle_13" data-name="Rectangle 13" width="37.679" height="0.876" transform="translate(100.101 140.075)" fill="#4393cf" opacity="0.1"/>
          <rect id="Rectangle_14" data-name="Rectangle 14" width="37.679" height="3.358" transform="translate(100.101 142.418)" fill="#4393cf" opacity="0.1"/>
          <rect id="Rectangle_15" data-name="Rectangle 15" width="37.679" height="5.4" transform="translate(100.101 158.126)" fill="#4393cf" opacity="0.1"/>
          <path id="Path_66" data-name="Path 66" d="M470.663,652.15v5.4H441.192q-1.919-1.534-3.792-3.151c-.863-.745-1.719-1.51-2.59-2.25Z" transform="translate(-332.876 -476.208)" fill="#4393cf" opacity="0.1"/>
          <path id="Path_67" data-name="Path 67" d="M534.315,712.218v5.395H531.2q-5.245-2.476-10.284-5.4Z" transform="translate(-396.408 -515.903)" fill="#4393cf" opacity="0.1"/>
          <rect id="Rectangle_16" data-name="Rectangle 16" width="7.417" height="7.765" transform="translate(203.978 104.323)" fill="#4393cf" opacity="0.1"/>
          <rect id="Rectangle_17" data-name="Rectangle 17" width="7.417" height="7.765" transform="translate(41.617 65.007)" fill="#4393cf" opacity="0.1"/>
          <rect id="Rectangle_18" data-name="Rectangle 18" width="7.417" height="7.765" transform="translate(41.617 84.607)" fill="#4393cf" opacity="0.1"/>
          <rect id="Rectangle_19" data-name="Rectangle 19" width="7.417" height="7.765" transform="translate(41.617 104.207)" fill="#4393cf" opacity="0.1"/>
          <rect id="Rectangle_20" data-name="Rectangle 20" width="7.417" height="7.765" transform="translate(41.617 123.804)" fill="#4393cf" opacity="0.1"/>
          <rect id="Rectangle_21" data-name="Rectangle 21" width="7.417" height="7.765" transform="translate(41.617 143.404)" fill="#4393cf" opacity="0.1"/>
          <rect id="Rectangle_22" data-name="Rectangle 22" width="7.417" height="7.765" transform="translate(41.617 163.005)" fill="#4393cf" opacity="0.1"/>
          <rect id="Rectangle_23" data-name="Rectangle 23" width="7.417" height="7.765" transform="translate(232.978 104.323)" fill="#4393cf" opacity="0.1"/>
          <rect id="Rectangle_24" data-name="Rectangle 24" width="7.417" height="7.765" transform="translate(203.978 125.136)" fill="#4393cf" opacity="0.1"/>
          <rect id="Rectangle_25" data-name="Rectangle 25" width="7.417" height="7.765" transform="translate(232.978 125.136)" fill="#4393cf" opacity="0.1"/>
          <rect id="Rectangle_26" data-name="Rectangle 26" width="7.417" height="7.765" transform="translate(203.978 145.947)" fill="#4393cf" opacity="0.1"/>
          <rect id="Rectangle_27" data-name="Rectangle 27" width="7.417" height="7.765" transform="translate(232.978 145.947)" fill="#4393cf" opacity="0.1"/>
          <rect id="Rectangle_28" data-name="Rectangle 28" width="7.417" height="7.765" transform="translate(203.978 166.761)" fill="#4393cf" opacity="0.1"/>
          <rect id="Rectangle_29" data-name="Rectangle 29" width="7.417" height="7.765" transform="translate(232.978 166.761)" fill="#4393cf" opacity="0.1"/>
          <rect id="Rectangle_30" data-name="Rectangle 30" width="7.417" height="7.765" transform="translate(203.978 190.467)" fill="#4393cf" opacity="0.1"/>
          <rect id="Rectangle_31" data-name="Rectangle 31" width="7.417" height="7.765" transform="translate(232.978 190.467)" fill="#4393cf" opacity="0.1"/>
          <path id="Path_68" data-name="Path 68" d="M775.83,707.337V702.33h7.415v4.295Z" transform="translate(-571.852 -492.713)" fill="#4393cf" opacity="0.1"/>
          <path id="Path_69" data-name="Path 69" d="M65.24,357v4.442H90.624V357Zm2.53,4.164H65.7v-3.891h2.086Zm2.527,0H68.211v-3.891H70.3Zm2.522,0H70.733v-3.891h2.086Zm2.527,0H73.262v-3.891h2.086Zm2.525,0H75.784v-3.891h2.086Zm2.527,0H78.312v-3.891H80.4Zm2.527,0H80.839v-3.891h2.086Zm2.525,0H83.363v-3.891H85.45Zm2.525,0H85.888v-3.891h2.086Zm2.525,0H88.413v-3.891H90.5Z" transform="translate(-60.671 -268.583)" fill="#4393cf" opacity="0.1"/>
          <path id="Path_70" data-name="Path 70" d="M65.24,404.34v4.442H90.624V404.34Zm2.53,4.161H65.7v-3.88h2.086Zm2.527,0H68.211v-3.88H70.3Zm2.522,0H70.733v-3.88h2.086Zm2.527,0H73.262v-3.88h2.086Zm2.525,0H75.784v-3.88h2.086Zm2.527,0H78.312v-3.88H80.4Zm2.527,0H80.839v-3.88h2.086Zm2.525,0H83.363v-3.88H85.45Zm2.525,0H85.888v-3.88h2.086Zm2.525,0H88.413v-3.88H90.5Z" transform="translate(-60.671 -301.895)" fill="#4393cf" opacity="0.1"/>
          <path id="Path_71" data-name="Path 71" d="M65.24,451.7v4.45H90.624V451.7Zm2.53,4.161H65.7v-3.882h2.086Zm2.527,0H68.211v-3.882H70.3Zm2.522,0H70.733v-3.882h2.086Zm2.527,0H73.262v-3.882h2.086Zm2.525,0H75.784v-3.882h2.086Zm2.527,0H78.312v-3.882H80.4Zm2.527,0H80.839v-3.882h2.086Zm2.525,0H83.363v-3.882H85.45Zm2.525,0H85.888v-3.882h2.086Zm2.525,0H88.413v-3.882H90.5Z" transform="translate(-60.671 -335.22)" fill="#4393cf" opacity="0.1"/>
          <path id="Path_72" data-name="Path 72" d="M65.24,499.06V503.5H90.624V499.06Zm2.53,4.161H65.7v-3.885h2.086Zm2.527,0H68.211v-3.885H70.3Zm2.522,0H70.733v-3.885h2.086Zm2.527,0H73.262v-3.885h2.086Zm2.525,0H75.784v-3.885h2.086Zm2.527,0H78.312v-3.885H80.4Zm2.527,0H80.839v-3.885h2.086Zm2.525,0H83.363v-3.885H85.45Zm2.525,0H85.888v-3.885h2.086Zm2.525,0H88.413v-3.885H90.5Z" transform="translate(-60.671 -368.547)" fill="#4393cf" opacity="0.1"/>
          <path id="Path_73" data-name="Path 73" d="M65.66,546.41c.1.418.216.835.336,1.248v-.969h2.086v3.882H66.967c.034.09.068.188.1.273H90.935V546.41Zm4.955,4.161H68.529v-3.882h2.086Zm2.522,0H71.051v-3.882h2.086Zm2.527,0H73.573v-3.882h2.086Zm2.525,0H76.1v-3.882h2.086Zm2.527,0H78.63v-3.882h2.086Zm2.527,0H81.157v-3.882h2.086Zm2.525,0H83.682v-3.882h2.086Zm2.525,0H86.206v-3.882h2.086Zm2.525,0H88.731v-3.882h2.086Z" transform="translate(-60.981 -401.866)" fill="#4393cf" opacity="0.1"/>
          <path id="Path_74" data-name="Path 74" d="M88.26,593.77c.065.087.128.186.2.273h1.38v1.865c.149.186.295.371.446.546v-2.422h2.086v3.9h-.845c.083.09.164.186.261.273h15.865V593.77Zm6.627,4.158H92.8v-3.88h2.086Zm2.527,0H95.328v-3.88h2.086Zm2.527,0H97.855v-3.88h2.086Zm2.525,0H100.38v-3.88h2.086Zm2.525,0H102.9v-3.88h2.086Zm2.525,0h-2.086v-3.88h2.086Z" transform="translate(-77.687 -435.192)" fill="#4393cf" opacity="0.1"/>
          <path id="Path_75" data-name="Path 75" d="M141.65,641.12c.237.142.48.273.725.415V641.4h2.086v1.229l.443.216V641.4h2.086v2.362a.631.631,0,0,0,.125.049V641.12Z" transform="translate(-117.153 -468.623)" fill="#4393cf" opacity="0.1"/>
          <path id="Path_76" data-name="Path 76" d="M355.246,283.67Zm-16.066,80.578Zm-16.762-41c.05.175.091.349.138.521h0C322.515,323.6,322.471,323.424,322.419,323.249Zm32.828-39.587ZM197.72,242.78v1.166h11.65V242.78ZM339.181,364.248Zm-16.762-41c.05.175.091.349.138.521h0C322.515,323.6,322.471,323.424,322.419,323.249Zm32.828-39.587ZM339.181,364.24Zm-16.762-40.991c.05.175.091.349.138.521h0C322.515,323.6,322.471,323.424,322.419,323.249Z" transform="translate(-158.599 -182.763)" fill="#4393cf" opacity="0.1"/>
          <path id="Path_77" data-name="Path 77" d="M351.229,278.261s-1.028-.15-1.028-1.717a25.59,25.59,0,0,0-.735-4.494h0c0-.014-.636-5.1-1.515-5.905s-2.008-5.553-2.008-5.553a11.661,11.661,0,0,0-.587-3.129,27.152,27.152,0,0,1-1.711-3.847c-.785-1.936-4.058-3.276-4.058-3.276s-5.918-3.593-7.595-4.764h0a2.586,2.586,0,0,1-.425-.336c-.292-.4-1.565-.41-1.565-.41a28.053,28.053,0,0,1-.3-2.8,2.228,2.228,0,0,0-.013-.295,9.374,9.374,0,0,0,3.967-5.138c.031-.1.057-.213.086-.317a.863.863,0,0,0,.509-.481,10.348,10.348,0,0,1,.342-1.092,3.991,3.991,0,0,1,.965-.887,3.933,3.933,0,0,0,1-3.11c-.026-.915-.167-1.837-.112-2.747l.016-.229c.016-.136.034-.273.057-.4.128-.677.407-1.316.563-1.988a2.664,2.664,0,0,0-.193-2.007,3.258,3.258,0,0,0-2.626-1.106c-1.108-.1-2.1.03-2.809-.934a10.39,10.39,0,0,0-1.116-1.412c-.146-.142-1.565-1.048-1.565-1.108a6.08,6.08,0,0,0-4.421-.355c-.736.224-1.429.59-2.175.773-1.609.4-3.461-.033-4.828.931a5.917,5.917,0,0,0-1.646,2.261q-.522,1.046-1.059,2.089a13.889,13.889,0,0,0-1.406,3.574,5.915,5.915,0,0,0-.094.835h0v.445a1.536,1.536,0,0,0,.016.273c.016.085.013.112.021.169s.021.186.036.273.047.24.078.36c.013.052.031.1.047.15.026.093.057.183.091.273.018.046.036.1.057.142a2.618,2.618,0,0,0,.133.273c.021.038.037.074.057.109a3.642,3.642,0,0,0,.24.366c.558.729,1.38,1.193,1.987,1.876v.306a9.453,9.453,0,0,0,4.063,7.631c0,.1.013.21.018.314a16.345,16.345,0,0,1-.029,2.433,1.075,1.075,0,0,0-.866-.4,1.2,1.2,0,0,0-.334.03l-.023-.019h0v.025c-.574.147-1.281.773-1.956,2.55,0,0-2.055,2.424-3.62,2.323s-5.526,2.523-5.526,2.523-3.865,2.626-4.694,5.3a38.428,38.428,0,0,1-1.664,4.445L296.5,271.354h0l-.882,8.177a39.657,39.657,0,0,1,.391,4.191c-.1.554,2.006,5.553,2.006,5.553s6.945,12.774,9.783,13.43l.2-.15a1.619,1.619,0,0,0,.383.15l.584-.431a6.973,6.973,0,0,1-.044,1.442c-.391,1.261.146,9.493.829,11.106s.441,22.77.441,22.77l-.1,1.867a.826.826,0,0,0,.023.164l-.023.442.07.038a5.5,5.5,0,0,1-.07,1.777,20.652,20.652,0,0,0-.344,3.134s-1.953,13.072-1.028,15.7,1.714,5.5,1.714,5.5.978,3.276.047,3.836-3.578,1.5-3.033,2.864c.5,1.261,2.376,4.641,2.655,5.135l-.023.259-.383,4.349a5.66,5.66,0,0,0,.441,1.66,2.732,2.732,0,0,0,2.788,1.824c.261-.019.563-.052.855-.093a35.669,35.669,0,0,0,6.338-1.725,2.613,2.613,0,0,1-.5-.429h0a1.535,1.535,0,0,1-.436-1.092c.042-.792-1.374-4.565-1.726-5.493-.055-.134-.083-.21-.083-.21s3.229-3.533,2.691-6.664c0,0-3.573-2.184-2.4-3.383a38.111,38.111,0,0,0,3.278-4.641s.1-12.873,0-14.795a16.651,16.651,0,0,1,.18-3.994c.039-.2.086-.393.136-.584a32.548,32.548,0,0,0,4.914.39c.6,0,1.21,0,1.826-.038q0,.273.023.59c.136,3.189.389,8.78.595,10.858.292,2.979,1.906,11.005,1.906,11.005s-3.08,2.069.537,7.169a7.22,7.22,0,0,1-.24,2.116h0a24.063,24.063,0,0,0-.618,2.665,4.911,4.911,0,0,0,.031,2.438c.587,1.207,4.108,1.108,4.108,1.108h0l.086-.016a4.894,4.894,0,0,1,3.727,1.177c1.338,1.125,6.416.631,9.165.273,1.077-.142,1.8-.273,1.8-.273a1.142,1.142,0,0,0,.036-.393h0c-.029-.707-.558-2.258-4.147-3.642,0,0-3.375-2.375-3.328-4.445h-.462a3.512,3.512,0,0,1,.467,0s-1.322-5.051-.782-5.46-1.077-6.006-1.077-6.006-.926-9.392-.975-10.05a5.983,5.983,0,0,1,.243-1.665l-.243-5.149s-.047-1.712,0-2.269a11.85,11.85,0,0,0-.112-1.444c-.023-.191-.047-.39-.073-.587,1.265-.336,2.086-.647,2.086-.647l-.146-17.924c1.074-2.184,1.273-6.976,1.268-10.375,0-2.184-.094-3.8-.094-3.8l1.468-2.509s.339-3-.2-3.661a.652.652,0,0,1,.065-.86,2.724,2.724,0,0,1,.321-.229s-.016-.025-.034-.06a2.6,2.6,0,0,1,.326-.243s-.522-.846-.055-1.2c.438.311.829.546,1.127.737-.021.2-.042.314-.042.314l.125-.273.462.273s2.3-4.8,2.251-5.5,1.565-3.686,1.565-3.686a3.764,3.764,0,0,1,1.077-2.22c.882-.655.683-5.4.683-5.4a12.094,12.094,0,0,1,.832-3.484C352.35,279.623,351.229,278.261,351.229,278.261Zm-44.014-2.1.044,1.144-.449-.756Z" transform="translate(-230.284 -156.736)" fill="url(#linear-gradient)"/>
          <path id="Path_78" data-name="Path 78" d="M469.592,494.6l-.563,2.512s-4.512-2.411-5.326-5.474,1.361-4.226,1.361-4.226l4.2,1.865Z" transform="translate(-354.137 -360.091)" fill="#fff"/>
          <path id="Path_79" data-name="Path 79" d="M469.592,494.6l-.563,2.512s-4.512-2.411-5.326-5.474,1.361-4.226,1.361-4.226l4.2,1.865Z" transform="translate(-354.137 -360.091)" opacity="0.1"/>
          <path id="Path_80" data-name="Path 80" d="M360.778,800.366a31.257,31.257,0,0,1-7.042,1.807A2.68,2.68,0,0,1,351,800.36a5.69,5.69,0,0,1-.43-1.652l.373-4.327.2-2.3,6.1-1.657.863,2.763.081.21c.347.923,1.737,4.677,1.7,5.46a1.526,1.526,0,0,0,.428,1.078A2.518,2.518,0,0,0,360.778,800.366Z" transform="translate(-270.89 -572.76)" fill="#fff"/>
          <path id="Path_81" data-name="Path 81" d="M445.908,797.4a1.14,1.14,0,0,1-.037.391s-8.925,1.559-10.75,0a4.687,4.687,0,0,0-3.756-1.152s-3.453.1-4.029-1.092a4.953,4.953,0,0,1-.029-2.424,24.01,24.01,0,0,1,.605-2.651l.138-.115.822-.691,9.618-.3h.073c-.047,2.059,3.265,4.42,3.265,4.42C445.347,795.155,445.866,796.7,445.908,797.4Z" transform="translate(-327.312 -571.997)" fill="#fff"/>
          <path id="Path_82" data-name="Path 82" d="M445.911,807.4a1.163,1.163,0,0,1-.039.39s-8.922,1.559-10.748,0a4.687,4.687,0,0,0-3.753-1.152s-3.456.1-4.029-1.092a4.95,4.95,0,0,1-.031-2.424c1.33.139,3.43.486,4.254,1.313a9.315,9.315,0,0,0,4.655,2.613C437.234,807.114,443.3,807.316,445.911,807.4Z" transform="translate(-327.316 -581.993)" opacity="0.1"/>
          <path id="Path_83" data-name="Path 83" d="M362.005,825.73a31.261,31.261,0,0,1-7.042,1.807,2.674,2.674,0,0,1-2.733-1.816c1.061.374,2.535.767,3.31.407.918-.426,4.173-.7,6-.819A2.6,2.6,0,0,0,362.005,825.73Z" transform="translate(-272.114 -598.125)" opacity="0.1"/>
          <path id="Path_84" data-name="Path 84" d="M393.785,309.381c-3.443-1.4-7.871-6.028-6.765-8.19a5.019,5.019,0,0,0,.43-1.736,16.589,16.589,0,0,0,.031-2.457,35.152,35.152,0,0,0-.462-4s10.748.254,10.122,1.911a6.476,6.476,0,0,0-.162,2.274c.05.945.18,2.012.316,2.916.188,1.239.376,2.184.376,2.184s-.657.964-1.043,1.016S398.725,311.377,393.785,309.381Z" transform="translate(-297.621 -223.208)" fill="#cf6f80"/>
          <path id="Path_85" data-name="Path 85" d="M359.207,793.393l-.081.093c-3.213-4.068-7.1,1-7.1,1l-.057-.106.2-2.3,6.1-1.657.863,2.763Z" transform="translate(-271.929 -572.76)" opacity="0.1"/>
          <path id="Path_86" data-name="Path 86" d="M440.668,789.627a5.962,5.962,0,0,0-3.6,1.106c-1.252,1.158-7.3.251-7.042,0a.926.926,0,0,0,.136-.415l.822-.691,9.618-.3C440.639,789.513,440.668,789.627,440.668,789.627Z" transform="translate(-329.434 -571.968)" opacity="0.1"/>
          <path id="Path_87" data-name="Path 87" d="M355.682,659.052a7.868,7.868,0,0,0-.4,1.4,16.767,16.767,0,0,0-.18,3.975c.1,1.911,0,14.718,0,14.718a39.193,39.193,0,0,1-3.213,4.619c-1.15,1.2,2.347,3.366,2.347,3.366.522,3.112-2.639,6.629-2.639,6.629-3.213-4.068-7.1,1-7.1,1s-2.113-3.822-2.639-5.187,2.063-2.31,2.973-2.864-.044-3.822-.044-3.822-.769-2.864-1.682-5.477,1.007-15.619,1.007-15.619a21.063,21.063,0,0,1,.336-3.115,5.448,5.448,0,0,0,.07-1.769c-.016-.2-.034-.366-.047-.478s-.023-.164-.023-.164l.037-.066,1.3-2.545S356.308,657.449,355.682,659.052Z" transform="translate(-264.412 -473.338)" fill="#4393cf"/>
          <path id="Path_88" data-name="Path 88" d="M432.678,697.807a6.013,6.013,0,0,0-3.6,1.092c-1.252,1.144-7.3.251-7.042,0s.24-2.11.24-2.11c-3.55-5.073-.522-7.131-.522-7.131s-1.586-7.986-1.873-10.948c-.2-2.069-.449-7.631-.582-10.806-.057-1.365-.091-2.3-.091-2.3l2.9-.612.373-.079,6.995-1.469s.193,1.365.323,2.482a12.132,12.132,0,0,1,.109,1.439c-.047.546,0,2.255,0,2.255l.237,5.125a6.075,6.075,0,0,0-.237,1.657c.047.653.957,10,.957,10s1.583,5.575,1.043,5.976S432.678,697.807,432.678,697.807Z" transform="translate(-321.46 -480.448)" fill="#4393cf"/>
          <path id="Path_89" data-name="Path 89" d="M397.632,294.911a6.475,6.475,0,0,0-.162,2.274,8.6,8.6,0,0,1-9.5-.186,35.15,35.15,0,0,0-.462-4S398.258,293.248,397.632,294.911Z" transform="translate(-298.111 -223.519)" opacity="0.1"/>
          <path id="Path_90" data-name="Path 90" d="M391.674,253.023a9.643,9.643,0,0,1-.438,2.9,8.908,8.908,0,0,1-9.779,6.344,9.206,9.206,0,0,1-7.627-9.017v-.224a8.933,8.933,0,1,1,17.848,0Z" transform="translate(-288.009 -188.528)" fill="#cf6f80"/>
          <path id="Path_91" data-name="Path 91" d="M393.785,326.567c-3.443-1.4-7.871-6.028-6.765-8.19a5.019,5.019,0,0,0,.43-1.736l4.713,4.054,2.916,2.5,2.217-5.908c.188,1.24.376,2.184.376,2.184s-.657.964-1.043,1.016S398.725,328.563,393.785,326.567Z" transform="translate(-297.621 -240.011)" opacity="0.1"/>
          <path id="Path_92" data-name="Path 92" d="M349.569,284.7l-3.936,69.21-5.133.352L327.21,314.13l2.18-47.644.459-10.066,5.91,5.081,2.918,2.5,2.282-6.08L345.2,261.8Z" transform="translate(-241.212 -175.615)" fill="#4393cf"/>
          <path id="Path_93" data-name="Path 93" d="M363.228,659.11a7.863,7.863,0,0,0-.4,1.4,36.606,36.606,0,0,1-10.761-3.519l-.07-.038.023-.44.013-.229,1.3-2.544S363.854,657.508,363.228,659.11Z" transform="translate(-271.941 -477.235)" opacity="0.1"/>
          <path id="Path_94" data-name="Path 94" d="M422.126,671.732a25.293,25.293,0,0,1-2.885.344c-.057-1.365-.091-2.3-.091-2.3l2.9-.612Z" transform="translate(-321.448 -488.345)" opacity="0.1"/>
          <path id="Path_95" data-name="Path 95" d="M439.018,665.972a19.383,19.383,0,0,1-7.282.718l-.036-1.731,6.995-1.469S438.888,664.841,439.018,665.972Z" transform="translate(-330.683 -484.327)" opacity="0.1"/>
          <path id="Path_96" data-name="Path 96" d="M335.816,413.663c-10.693,1.911-20.486-3.568-20.486-3.568l.094-1.856s.243-21.047-.43-22.66-1.2-9.8-.816-11.052-1.39-20.089-1.39-20.089l-.287-7.644L302,342.34l4.694-10.244a38.032,38.032,0,0,0,1.633-4.423c.816-2.659,4.606-5.272,4.606-5.272s3.886-2.61,5.422-2.512,3.55-2.31,3.55-2.31c1.487-3.967,2.832-2.17,2.832-2.17a3.7,3.7,0,0,1-.073.587c-.522,4.355,8.434,18.115,8.562,18.358h0l.853,21.748.863,27.523Z" transform="translate(-235.044 -234.098)" opacity="0.1"/>
          <path id="Path_97" data-name="Path 97" d="M334.694,413.619C324,415.53,314.2,410.051,314.2,410.051l.1-1.857s.243-21.047-.433-22.66-1.2-9.8-.814-11.052-1.39-20.089-1.39-20.089l-.289-7.644L300.87,342.28l4.694-10.244a38.618,38.618,0,0,0,1.633-4.423c.814-2.659,4.606-5.272,4.606-5.272s3.886-2.61,5.42-2.512,3.55-2.31,3.55-2.31c1.489-3.967,3.13-2.17,3.13-2.17,0,.188-.157.273-.073.587,1.148,4.224,8.148,18.115,8.275,18.358h0l.863,21.749.863,27.523Z" transform="translate(-234.212 -234.056)" fill="#fff"/>
          <path id="Path_98" data-name="Path 98" d="M391.591,336.6c-1.15-.5-7.243-7.784-7.243-7.784v-1.657c-.222-.546-1.539-.213-2.608.169l.459-10.066.522.453C383.863,321.934,391.458,336.355,391.591,336.6Z" transform="translate(-293.86 -240.157)" opacity="0.1"/>
          <path id="Path_99" data-name="Path 99" d="M392.693,334.388c-1.153-.5-7.245-7.784-7.245-7.784v-1.657c-.222-.546-1.539-.213-2.608.169l.462-10.066.522.453C384.968,319.724,392.565,334.147,392.693,334.388Z" transform="translate(-294.67 -238.606)" fill="#fff"/>
          <path id="Path_100" data-name="Path 100" d="M351.447,516.753c.143,0,7.436-.8,7.436-.8s4.415,9.089,4.126,11.3-.814,4.169-2.59,3.822-9.558.273-9.558.273Z" transform="translate(-271.099 -379.843)" opacity="0.1"/>
          <path id="Path_101" data-name="Path 101" d="M350.337,514.543c.143,0,7.436-.8,7.436-.8s4.413,9.091,4.126,11.3-.816,4.169-2.59,3.822-9.558.273-9.558.273Z" transform="translate(-270.281 -378.291)" fill="#fff"/>
          <path id="Path_102" data-name="Path 102" d="M361.768,501.05s6.692,3.765,6.836,4.914-3.406-.5-4.173-.7a9.153,9.153,0,0,0-1.536-.251l-5.114.145Z" transform="translate(-276.201 -369.904)" fill="#cf6f80"/>
          <ellipse id="Ellipse_3" data-name="Ellipse 3" cx="0.704" cy="0.737" rx="0.704" ry="0.737" transform="translate(95.199 96.433)" opacity="0.1"/>
          <ellipse id="Ellipse_4" data-name="Ellipse 4" cx="0.704" cy="0.737" rx="0.704" ry="0.737" transform="translate(95.199 96.108)" fill="#3f3d56"/>
          <ellipse id="Ellipse_5" data-name="Ellipse 5" cx="0.704" cy="0.737" rx="0.704" ry="0.737" transform="translate(96.506 131.03)" opacity="0.1"/>
          <ellipse id="Ellipse_6" data-name="Ellipse 6" cx="0.704" cy="0.737" rx="0.704" ry="0.737" transform="translate(96.506 130.701)" fill="#3f3d56"/>
          <ellipse id="Ellipse_7" data-name="Ellipse 7" cx="0.704" cy="0.737" rx="0.704" ry="0.737" transform="translate(95.906 113.732)" opacity="0.1"/>
          <ellipse id="Ellipse_8" data-name="Ellipse 8" cx="0.704" cy="0.737" rx="0.704" ry="0.737" transform="translate(95.906 113.406)" fill="#3f3d56"/>
          <path id="Path_103" data-name="Path 103" d="M440.039,372.408s.48.754,0,1.106.047,1.2.047,1.2-1.2.734-.67,1.4.193,3.645.193,3.645l-1.44,2.5s.086,1.608.091,3.781c0,3.391-.19,8.158-1.244,10.331l.146,17.831s-5.041,1.927-9.261,1.34l-.626-28.612s.913-16.225,1.249-19.338a33.911,33.911,0,0,0,.24-4.873,56.945,56.945,0,0,0-.626-7.131s-.522-9.793-.574-12.5c-.023-1.3.042-5.081.115-8.679.081-3.934.172-7.644.172-7.644l-.952-7.885s.952-.1,1.239.3a2.764,2.764,0,0,0,.417.336h0c1.643,1.163,7.449,4.74,7.449,4.74s3.213,1.338,3.982,3.254a28.993,28.993,0,0,0,1.677,3.822,12.292,12.292,0,0,1,.576,3.112s1.106,4.723,1.969,5.523,1.494,5.889,1.494,5.889l-7.629,6.279s-.67,10.446-.814,10.85S440.039,372.408,440.039,372.408Z" transform="translate(-327.109 -236.952)" fill="#fff"/>
          <path id="Path_104" data-name="Path 104" d="M440.277,372.177s.477.754,0,1.106.044,1.2.044,1.2-1.189.743-.668,1.4.193,3.645.193,3.645l-1.44,2.5s.086,1.608.094,3.781c0,3.391-.19,8.158-1.244,10.331l.143,17.831s-5.049,1.928-9.264,1.341l-.623-28.612s.913-16.225,1.249-19.338A33.587,33.587,0,0,0,429,362.49a57.289,57.289,0,0,0-.623-7.131s-.522-9.793-.576-12.5c-.023-1.3.044-5.081.115-8.679.081-3.934.172-7.644.172-7.644l-1.257-7.991s1.257,0,1.547.407a2.5,2.5,0,0,0,.417.336h0c1.643,1.163,7.451,4.74,7.451,4.74s3.211,1.338,3.98,3.254a28.52,28.52,0,0,0,1.68,3.822,12.149,12.149,0,0,1,.574,3.112s1.106,4.723,1.969,5.523,1.487,5.878,1.487,5.878l-7.629,6.279s-.67,10.446-.816,10.85S440.277,372.177,440.277,372.177Z" transform="translate(-327.057 -236.725)" fill="#fff"/>
          <path id="Path_105" data-name="Path 105" d="M431.962,330.441l.689,2.1-3.625,3.822c.081-3.931.172-7.645.172-7.645l-1.257-7.991s1.257,0,1.547.407a2.393,2.393,0,0,0,.417.333h0l3.083,9.31Z" transform="translate(-327.919 -242.716)" opacity="0.1"/>
          <path id="Path_106" data-name="Path 106" d="M430.852,328.231l.691,2.1-3.625,3.822c.081-3.934.172-7.644.172-7.644l-1.26-7.991s1.26,0,1.547.407a2.628,2.628,0,0,0,.417.336h0l3.085,9.307Z" transform="translate(-327.101 -241.163)" fill="#fff"/>
          <path id="Path_107" data-name="Path 107" d="M391.674,253.023a9.643,9.643,0,0,1-.438,2.9.36.36,0,0,1-.282-.074,12.36,12.36,0,0,0-2.645-6.727,6.935,6.935,0,0,0-1.434-1.556,2.717,2.717,0,0,0-1.946-.576c-.782.112-1.474.669-2.264.74-1.043.09-1.977-.666-3.012-.7a2.908,2.908,0,0,0-2.214,1.076,6.456,6.456,0,0,0-1.187,2.3,14.053,14.053,0,0,0-.662,3.975c-.013.764-.083,1.723-.762,2a4.2,4.2,0,0,0-.983-3.115l-.016-.016v-.224a8.933,8.933,0,1,1,17.848,0Z" transform="translate(-288.009 -188.666)" opacity="0.1"/>
          <path id="Path_108" data-name="Path 108" d="M378.722,221.941a5.893,5.893,0,0,0-4.335-.355c-.722.224-1.4.587-2.136.77-1.565.4-3.39-.033-4.734.926a5.911,5.911,0,0,0-1.612,2.247l-1.043,2.08a13.865,13.865,0,0,0-1.38,3.549,4.7,4.7,0,0,0,.665,3.664c.553.734,1.369,1.2,1.969,1.887a4.219,4.219,0,0,1,.981,3.112c.681-.273.746-1.234.762-2a14.051,14.051,0,0,1,.662-3.975,6.436,6.436,0,0,1,1.187-2.3,2.913,2.913,0,0,1,2.214-1.076c1.043.038,1.979.792,3.012.7.782-.068,1.476-.628,2.264-.737a2.706,2.706,0,0,1,1.946.576,6.865,6.865,0,0,1,1.432,1.556,12.327,12.327,0,0,1,2.647,6.727c.295.227.72-.068.866-.418a10.318,10.318,0,0,1,.336-1.092,3.912,3.912,0,0,1,.944-.879,3.978,3.978,0,0,0,.986-3.093,16.128,16.128,0,0,1-.036-3.364c.123-.677.4-1.31.55-1.979a2.7,2.7,0,0,0-.188-2,3.142,3.142,0,0,0-2.577-1.092c-1.088-.1-2.06.027-2.754-.931a10.373,10.373,0,0,0-1.1-1.4C380.117,222.9,378.722,222,378.722,221.941Z" transform="translate(-280.292 -172.842)" fill="#512e4e"/>
          <path id="Path_109" data-name="Path 109" d="M303.349,420.4l-2.725-5.275-.863,8.139a39.439,39.439,0,0,1,.383,4.169c-.1.554,1.966,5.523,1.966,5.523s6.815,12.706,9.6,13.361l9.4-7.033-2.493-3.314s-.863-.352-1.08,0c0,0-4.629-8.338-5.109-8.941a3.131,3.131,0,0,1-.386-1.807,1.884,1.884,0,0,1-.48-1.556c.24-.754-1.39-3.366-1.39-3.366l1.487-1.455Z" transform="translate(-233.424 -308.269)" opacity="0.1"/>
          <path id="Path_110" data-name="Path 110" d="M299.133,412.93l-.72.6-.863,8.139a39.437,39.437,0,0,1,.383,4.169c-.1.554,1.969,5.523,1.969,5.523s6.812,12.706,9.6,13.361l9.4-7.033-2.5-3.314s-.863-.352-1.08,0c0,0-4.629-8.338-5.109-8.941a3.121,3.121,0,0,1-.383-1.807,1.884,1.884,0,0,1-.48-1.556c.24-.754-1.393-3.366-1.393-3.366l1.487-1.455Z" transform="translate(-231.795 -306.698)" fill="#fff"/>
          <path id="Path_111" data-name="Path 111" d="M459.469,516.762c.522.663.193,3.642.193,3.642l-1.44,2.5s.086,1.611.091,3.781l-2.42.792a1.385,1.385,0,0,1-1.3-.238,1.531,1.531,0,0,1-.567-1.245l.417-14.09,5.646,2.261c-.48.349.047,1.207.047,1.207S458.942,516.1,459.469,516.762Z" transform="translate(-347.141 -376.984)" opacity="0.1"/>
          <path id="Path_112" data-name="Path 112" d="M460.571,515.66c.522.663.193,3.645.193,3.645l-1.44,2.5s.086,1.608.094,3.781l-2.465.805a1.358,1.358,0,0,1-1.27-.234,1.5,1.5,0,0,1-.556-1.218l.42-14.134,5.649,2.261c-.483.349.044,1.2.044,1.2S460.05,515,460.571,515.66Z" transform="translate(-347.951 -376.211)" fill="#fff"/>
          <path id="Path_113" data-name="Path 113" d="M470.367,498.146s-.383,2.564-1.343,2.714-1.39,4.147-2.347,4.005-.323-3.716-.29-4.409-1.043-3.566-.237-4.218,3.357,0,3.357,0Z" transform="translate(-355.859 -366.134)" fill="#cf6f80"/>
          <path id="Path_114" data-name="Path 114" d="M469.618,421.512l1.81-3.822a25.867,25.867,0,0,1,.72,4.469c0,1.556,1.007,1.709,1.007,1.709s1.1,1.365.522,2.359a11.9,11.9,0,0,0-.816,3.467s.19,4.72-.673,5.373a3.736,3.736,0,0,0-1.043,2.211s-1.586,2.962-1.536,3.667-2.206,5.474-2.206,5.474,1.1-5.927-5.326-8.488c0,0-.05-2.012.43-2.564s1.228-.8.759-3.59a34.073,34.073,0,0,1-.136-6.787,44.216,44.216,0,0,1,1.44-4.841Z" transform="translate(-353.052 -310.19)" opacity="0.1"/>
          <path id="Path_115" data-name="Path 115" d="M471.946,415.69l1.58.546a25.785,25.785,0,0,1,.722,4.469c0,1.556,1.007,1.709,1.007,1.709s1.1,1.365.522,2.359a11.866,11.866,0,0,0-.814,3.467s.19,4.72-.673,5.373a3.785,3.785,0,0,0-1.056,2.211s-1.583,2.962-1.534,3.667-2.209,5.474-2.209,5.474,1.106-5.927-5.326-8.488c0,0-.047-2.012.433-2.564s1.228-.8.759-3.59a34.074,34.074,0,0,1-.136-6.787,44.216,44.216,0,0,1,1.44-4.841Z" transform="translate(-354.592 -308.761)" fill="#fff"/>
          <path id="Path_116" data-name="Path 116" d="M360.15,776.186s2.519-1.657,4.173-.453S360.15,776.186,360.15,776.186Z" transform="translate(-277.964 -561.764)" opacity="0.1"/>
          <path id="Path_117" data-name="Path 117" d="M435.21,759.751a4.969,4.969,0,0,1,4.1,1.81C441.185,763.671,435.21,759.751,435.21,759.751Z" transform="translate(-333.279 -550.454)" opacity="0.1"/>
          <g id="Group_2" data-name="Group 2" transform="translate(83.089 54.897)" opacity="0.1">
            <path id="Path_118" data-name="Path 118" d="M395.947,258.923a3.936,3.936,0,0,0-.947.882,10.346,10.346,0,0,0-.334,1.092c-.146.355-.571.644-.866.42a12.379,12.379,0,0,0-2.647-6.73,6.864,6.864,0,0,0-1.432-1.556,2.714,2.714,0,0,0-1.948-.576c-.782.112-1.471.669-2.261.737-1.043.093-1.98-.663-3.015-.7a2.9,2.9,0,0,0-2.212,1.078,6.42,6.42,0,0,0-1.187,2.3,14.066,14.066,0,0,0-.662,3.975c-.016.762-.083,1.712-.756,2a3.909,3.909,0,0,1,0,.606c.678-.273.746-1.234.762-2a14.051,14.051,0,0,1,.662-3.975,6.435,6.435,0,0,1,1.187-2.3,2.908,2.908,0,0,1,2.212-1.076c1.043.038,1.982.792,3.015.7.782-.068,1.476-.628,2.261-.737a2.714,2.714,0,0,1,1.948.576,6.863,6.863,0,0,1,1.432,1.556,12.346,12.346,0,0,1,2.647,6.727c.295.227.72-.068.866-.418a10.936,10.936,0,0,1,.334-1.092c.214-.385.626-.59.947-.879a3.978,3.978,0,0,0,.986-3.093v-.1A3.674,3.674,0,0,1,395.947,258.923Z" transform="translate(-373.952 -249.946)"/>
            <path id="Path_119" data-name="Path 119" d="M366.127,264.5c-.6-.691-1.419-1.152-1.969-1.884a4.116,4.116,0,0,1-.759-2.236,4.349,4.349,0,0,0,.759,2.837c.55.734,1.369,1.2,1.969,1.887a4.2,4.2,0,0,1,.983,2.435A4.217,4.217,0,0,0,366.127,264.5Z" transform="translate(-363.385 -255.717)"/>
            <path id="Path_120" data-name="Path 120" d="M451.655,243.841c-.154.669-.428,1.305-.553,1.979a6.6,6.6,0,0,0-.081,1.365,5.54,5.54,0,0,1,.081-.775c.125-.677.4-1.31.553-1.979a3.51,3.51,0,0,0,.086-1.13,3.961,3.961,0,0,1-.086.541Z" transform="translate(-428.16 -243.3)"/>
          </g>
          <ellipse id="Ellipse_9" data-name="Ellipse 9" cx="25.413" cy="4.273" rx="25.413" ry="4.273" transform="translate(9.079 216.977)" fill="#4393cf" opacity="0.1"/>
          <rect id="Rectangle_32" data-name="Rectangle 32" width="1.635" height="38.542" transform="translate(33.675 133.929)" fill="#535461"/>
          <path id="Path_121" data-name="Path 121" d="M159.631,637.546l-.1,1.736-.146,2.457-.06,1.021-.143,2.457-.063,1.021-.146,2.457-1.648,27.867a4.605,4.605,0,0,1-4.5,4.428h-8.57a4.6,4.6,0,0,1-4.5-4.428l-1.64-27.886-.146-2.457-.06-1.021-.146-2.457-.06-1.021-.146-2.457-.1-1.736a2.525,2.525,0,0,1,.639-1.828,2.3,2.3,0,0,1,1.709-.768h17.529a2.285,2.285,0,0,1,1.693.785A2.511,2.511,0,0,1,159.631,637.546Z" transform="translate(-114.045 -459.722)" fill="#3f3d56"/>
          <path id="Path_122" data-name="Path 122" d="M112.566,592.24l-.146,2.449H90.726l-.146-2.449Z" transform="translate(-67.081 -416.871)" fill="#9d9cb5"/>
          <path id="Path_123" data-name="Path 123" d="M112.944,604.95,112.8,607.4H91.516l-.146-2.452Z" transform="translate(-67.665 -425.818)" fill="#9d9cb5"/>
          <path id="Path_124" data-name="Path 124" d="M113.322,617.68l-.143,2.449H92.306l-.146-2.449Z" transform="translate(-68.249 -434.778)" fill="#9d9cb5"/>
          <path id="Path_125" data-name="Path 125" d="M68.745,536.383c9.522,7.213,13.5,18.494,13.5,18.494s-11.475-.412-21-7.625S47.75,528.76,47.75,528.76,59.22,529.17,68.745,536.383Z" transform="translate(-47.742 -388.18)" fill="#4393cf"/>
          <path id="Path_126" data-name="Path 126" d="M47.72,528.76s11.914,6.921,15.734,12.652,18.765,13.465,18.765,13.465" transform="translate(-47.72 -388.18)" fill="none" stroke="#535461" stroke-miterlimit="10" stroke-width="2"/>
          <path id="Path_127" data-name="Path 127" d="M119.429,492.41a24.245,24.245,0,0,1,7.35,10.063,22.387,22.387,0,0,1-11.431-4.147A24.2,24.2,0,0,1,108,488.26,22.37,22.37,0,0,1,119.429,492.41Z" transform="translate(-92.279 -360.456)" fill="#4393cf"/>
          <path id="Path_128" data-name="Path 128" d="M108,488.26s6.484,3.768,8.562,6.885,10.216,7.328,10.216,7.328" transform="translate(-92.279 -360.456)" fill="none" stroke="#535461" stroke-miterlimit="10" stroke-width="2"/>
          <path id="Path_129" data-name="Path 129" d="M188.4,515.19c-5.954,6.85-7.214,15.8-7.214,15.8a31.551,31.551,0,0,0,14.344-9.01,34.3,34.3,0,0,0,7.214-15.8A31.606,31.606,0,0,0,188.4,515.19Z" transform="translate(-146.38 -372.432)" fill="#4393cf"/>
          <path id="Path_130" data-name="Path 130" d="M202.753,506.19s-7.756,7.022-9.728,11.86S181.19,531,181.19,531" transform="translate(-146.38 -372.439)" fill="#4393cf" stroke="#535461" stroke-miterlimit="10" stroke-width="2"/>
          <path id="Path_131" data-name="Path 131" d="M881.005,336.494s-4.306-22.426-2.658-25.216c0,0,.06-2.594-.039-5.9V305a7.945,7.945,0,0,0,.905.546,7.031,7.031,0,0,0,4.929.666l-1.3-1.521a2.546,2.546,0,0,1-.707-1.237,2.693,2.693,0,0,1,.282-1.338c1.239-3.276,1.3-7.4-1.082-9.9-2.016-2.1-2.506-4.816-4.694-6.735a14.294,14.294,0,0,1-3.307-5.46,31.644,31.644,0,0,1-1.81-5.168c-.313-1.4-.438-2.839-.869-4.2a5.311,5.311,0,0,0-2.5-3.3,9.213,9.213,0,0,1-1.356-.625,6.068,6.068,0,0,1-1.249-1.537c-1.974-2.73-8.586-1.122-11.715-.014a6.512,6.512,0,0,0-2.316,1.343l.029-.049c.023-.041.052-.082.078-.123a4.248,4.248,0,0,0-.876,1.024,25.163,25.163,0,0,0-1.028,2.457c-.459.969-3.012,3.675-1.914,4.764a.919.919,0,0,0,.261.175,2.162,2.162,0,0,0,1.3.137l-.047.117a8.308,8.308,0,0,0-.566,3.028,8.011,8.011,0,0,0,7.9,8.122,7.645,7.645,0,0,0,2.418-.39c.018.1.034.207.052.311a1,1,0,0,0,.018.123h0l-.138.2a.265.265,0,0,0-.023-.036l-4.095,5.99c-.626.461-4.23,3.192-4.434,5.239-.214,2.241-.428,4.865-.428,4.865l-.029.562a1.561,1.561,0,0,1-1.3.369c-1.278-.218-1.278,4.914-1.278,4.914s-.85.819-1.434.109-2.128,1.7-2.128,1.7l-9.676.437h0l-.222.014-.522-1.69a.675.675,0,0,0-.853-.456.765.765,0,0,0-.117.052l-.036.022-.068.049-.034.033a.547.547,0,0,0-.052.057l-.031.038-.016.016h0a.714.714,0,0,0-.094.612l.449,1.45c-1.867.393-3.776,1.5-2.219,4.554l-7.892-1.526,2.553,2.244,13.181,2.848c-.175.328-.06.8.485,1.472,2.347,2.886,6.624,3.669,8.346,3.871a15.691,15.691,0,0,0,1.693,3l-.149,2.875s-4.358,21.912-5.156,23.023a12.951,12.951,0,0,0,1.1-1.521c-1.265,4.5-3.033,10.664-3.5,11.587-.746,1.474-1.437,7.44-.587,7.822a6.84,6.84,0,0,0,2.071-.025v.494l-.047,18.726s.214,11.486-.373,12.581a11.137,11.137,0,0,0-.743,3.391s-2.347,4.529-4.207,6.35a.286.286,0,0,1-.042.038l-.057-.426s-2.235,2.954-7.18,2.787c0,0-2.976,2.026,1.437,2.135s10.049-.164,10.049-.164,3.936-6.279,7.232-5.46V416.2h1.009v-4.835a4.349,4.349,0,0,0,1.8-2.848,3.547,3.547,0,0,0-1.179-3.2,2.091,2.091,0,0,1-.644-1.5l-.036.033c0-.1-.023-.194-.034-.295-.289-2.457-.652-7.527.628-11.278,1.755-5.144,2.287-12.308,1.009-16.572a39.551,39.551,0,0,1-1.015-4.153c-.031-.178-.06-.347-.086-.505a19.75,19.75,0,0,1,2.59.546c2.96.855,9.436,1.013,14.965.966.013.158.029.325.047.491a18.636,18.636,0,0,0,.616,3.418c.694,2.184,1.012,11.813,1.012,11.813s.895,7.918.407,11.139c-.261,1.791-.522,3.59-.67,5.4v.035s-1.466,4.368-2.538,6.741c-.026.06-.055.12-.081.177a3.261,3.261,0,0,0-.837.194s-1.437,3-2.869,3.5-.957,2.132,2.285,1.532,8.137-1.092,8.137-1.092l.211-3.063,1-1.305-.261,3.055,1.061-.218-.141-3.716,1.63-2.135s1.969-1.835-.957-5.444v.079c-.031-.052-.06-.106-.094-.158v-.016c-.485-.786-.871-2.252-.164-4.854,1.278-4.7,2.021-8.969,2.021-8.969s2.853-11.431-.576-16.84h.151a9.406,9.406,0,0,1-.738-2.4q-.026-.147-.047-.3a18.12,18.12,0,0,0,7.06-1.671C883.24,367.94,882.017,340.813,881.005,336.494Zm-32.217-18.92v.055l-.522.027Zm-1.789.259a.565.565,0,0,0-.235.117,2.493,2.493,0,0,0-.409,1.122l-.814-.191s-.571-.128-1.393-.273l-.389-.41C844.829,318.106,845.94,317.97,847,317.833Z" transform="translate(-617.964 -189.838)" fill="url(#linear-gradient-2)"/>
          <path id="Path_132" data-name="Path 132" d="M971.63,742.076l-.31,3.869,1.041-.218-.156-4.2Z" transform="translate(-715.673 -521.211)" fill="#1d2366"/>
          <path id="Path_133" data-name="Path 133" d="M888.5,673.21c-1.254,3.74-.9,8.788-.618,11.24.1.906.2,1.458.2,1.458s-1.875,4.472-2.032,4.641-5.519,3.6-5.519,3.6l-3.748,2.291s-3.8-1.745-1.98-2.345a2.766,2.766,0,0,0,.983-.7c1.826-1.816,4.118-6.328,4.118-6.328a11.323,11.323,0,0,1,.73-3.38c.574-1.089.365-12.537.365-12.537l.044-18.661V650.05l7.133.055a17.661,17.661,0,0,0,.308,2.457,39.016,39.016,0,0,0,.994,4.139C890.741,660.957,890.219,668.086,888.5,673.21Z" transform="translate(-656.796 -470.714)" fill="#ffb0b1"/>
          <path id="Path_134" data-name="Path 134" d="M888.086,777.522s-1.875,4.472-2.032,4.641-5.519,3.6-5.519,3.6l-3.748,2.291s-3.8-1.745-1.98-2.345a2.767,2.767,0,0,0,.983-.7l.162,1.193,1.249-.055L887.9,776.07C887.989,776.971,888.086,777.522,888.086,777.522Z" transform="translate(-656.811 -562.328)" opacity="0.1"/>
          <path id="Path_135" data-name="Path 135" d="M869.178,777l-10.753,10.14-1.249.055-.261-1.911s-2.186,2.943-7.042,2.779c0,0-2.916,2.018,1.406,2.127s9.84-.164,9.84-.164,3.855-6.279,7.081-5.46v4.742h.991v-4.786a4.332,4.332,0,0,0,1.758-2.839,3.566,3.566,0,0,0-1.15-3.189A2.1,2.1,0,0,1,869.178,777Z" transform="translate(-638.035 -563.004)" fill="#1d2366"/>
          <path id="Path_136" data-name="Path 136" d="M996.1,678.5c-.694,2.594-.316,4.054.159,4.838v.016a9.178,9.178,0,0,1,1.247,3.186l.042.246-4.893,7.467L990,695.345s-4.269-1.526-3.49-1.963a4.209,4.209,0,0,0,.85-1.458c1.043-2.362,2.483-6.719,2.483-6.719v-.036c.151-1.8.391-3.593.657-5.378.477-3.213-.4-11.1-.4-11.1s-.313-9.591-.991-11.772a18.75,18.75,0,0,1-.608-3.4c-.141-1.365-.172-2.49-.172-2.49s2.812-4.1,7.965.328a5.839,5.839,0,0,1,1.077,1.223c3.56,5.3.694,16.982.694,16.982S997.349,673.812,996.1,678.5Z" transform="translate(-739.152 -470.172)" fill="#ffb0b1"/>
          <path id="Path_137" data-name="Path 137" d="M997.578,777.234l-4.893,7.467-2.655,1.092s-4.269-1.526-3.49-1.963a4.214,4.214,0,0,0,.85-1.458,3.383,3.383,0,0,1,2.744,1.786l2.29-.382s3.02-6.214,3.7-6.593.1-2.837.1-2.837v-.625c.018.022.034.046.055.068v.016a9.177,9.177,0,0,1,1.247,3.186Z" transform="translate(-739.174 -560.62)" opacity="0.1"/>
          <path id="Path_138" data-name="Path 138" d="M980.315,784.74s-1.3-2.506-3.8-1.581c0,0-1.406,3-2.812,3.489s-.936,2.124,2.24,1.526,7.965-1.092,7.965-1.092l.209-3.055,3.229-4.305s1.925-1.826-.939-5.422v.625s.574,2.457-.1,2.837-3.688,6.6-3.688,6.6Z" transform="translate(-729.198 -561.042)" fill="#1d2366"/>
          <path id="Path_139" data-name="Path 139" d="M907.281,650.085a17.645,17.645,0,0,0,.308,2.457,31.265,31.265,0,0,0-7.449-.079V650.03Z" transform="translate(-675.886 -474.906)" opacity="0.1"/>
          <path id="Path_140" data-name="Path 140" d="M1003.121,653.255s-4.173.213-9.149.257c-.141-1.365-.172-2.49-.172-2.49s2.812-4.1,7.965.328a5.845,5.845,0,0,1,1.077,1.223,6.849,6.849,0,0,0,.279.683Z" transform="translate(-744.611 -474.278)" opacity="0.1"/>
          <path id="Path_141" data-name="Path 141" d="M927.065,525.422s-18.277.926-23.848-.71-11.092-.218-11.924-.6-.156-6.323.574-7.795,4.736-16.354,4.736-16.354l3.855-21.039,4.061-1.171.287-.085,7.076-2.042,5.185-1.5s10.31,42.135,9.426,45.242a8.316,8.316,0,0,0-.151,3.656A9.439,9.439,0,0,0,927.065,525.422Z" transform="translate(-668.555 -348.19)" fill="#4393cf"/>
          <path id="Path_142" data-name="Path 142" d="M870.555,439s-3.651,4.1-.887,6.378,4.582.218,4.582.218Z" transform="translate(-652.68 -326.155)" fill="#c7daf5"/>
          <path id="Path_143" data-name="Path 143" d="M870.555,439s-3.651,4.1-.887,6.378,4.582.218,4.582.218Z" transform="translate(-652.68 -326.155)" opacity="0.1"/>
          <path id="Path_144" data-name="Path 144" d="M966.971,320.5s-.428.426-1.072,1.054c-.918.9-2.277,2.211-3.482,3.312-1.669,1.521-3.046,2.637-2.553,1.685a7.69,7.69,0,0,0,.154-4.166c-.018-.1-.034-.207-.052-.309a29.734,29.734,0,0,0-.806-3.374,57.748,57.748,0,0,1,4.189-5.086c.556-.546.944-.77.968-.39a13.128,13.128,0,0,0,.845,2.834c.013.038.026.074.042.112.3.819.644,1.66.944,2.386C966.606,319.673,966.971,320.5,966.971,320.5Z" transform="translate(-719.005 -237.368)" fill="#ffb0b1"/>
          <path id="Path_145" data-name="Path 145" d="M965.2,316.181a8,8,0,0,1-5.185,6.214,29.528,29.528,0,0,0-.858-3.683s5.078-6.866,5.156-5.477A13.442,13.442,0,0,0,965.2,316.181Z" transform="translate(-719.005 -237.514)" opacity="0.1"/>
          <path id="Path_146" data-name="Path 146" d="M932.834,351.419l.657-.969s.436,2.779,2.037,1.553,1.68,9.225,1.68,9.225l-1.719,26.9-12.42-.778.352-13,1.406-6.552,3.477-9.526,2.068-3.148Z" transform="translate(-692.735 -262.689)" opacity="0.1"/>
          <path id="Path_147" data-name="Path 147" d="M937.23,361.8l-1.565,24.323L935.5,388.7l-6.924-.434-.261-.016-5.216-.328.352-13,1.406-6.552,3.477-9.526L930.4,355.7l2.462-3.721.657-.966s.436,2.779,2.037,1.553l.034-.025h0C937.157,351.5,937.23,361.8,937.23,361.8Z" transform="translate(-692.757 -263.08)" fill="#1d2366"/>
          <path id="Path_148" data-name="Path 148" d="M884.894,406.26s-.623,1.365-1.875,1.144-1.249,4.914-1.249,4.914-.832.819-1.406.109-2.086,1.69-2.086,1.69l-9.478.437s4.217,2.018,3.391,8.122c0,0,14.318-.928,14.788-2.345S884.894,406.26,884.894,406.26Z" transform="translate(-652.716 -302.754)" fill="#fff"/>
          <path id="Path_149" data-name="Path 149" d="M884.894,406.26s-.623,1.365-1.875,1.144-1.249,4.914-1.249,4.914-.832.819-1.406.109-2.086,1.69-2.086,1.69l-9.478.437s4.217,2.018,3.391,8.122c0,0,14.318-.928,14.788-2.345S884.894,406.26,884.894,406.26Z" transform="translate(-652.716 -302.754)" opacity="0.03"/>
          <path id="Path_150" data-name="Path 150" d="M777.66,389.76l2.5,2.233,20.567,4.524-2.551-2.725Z" transform="translate(-573.096 -274.16)" fill="#fff"/>
          <path id="Path_151" data-name="Path 151" d="M918.459,350.353a56.665,56.665,0,0,0-2.136,5.782c-.681,2.034-1.249,3.822-1.249,3.822s-1.327,9.048-2.006,10.683-.31,8.013-.31,8.013l-2.527,15.75a81.7,81.7,0,0,1-2.913,12.974,23.9,23.9,0,0,1-3.748,7.085c.782-1.108,5.047-22.933,5.047-22.933L910.025,364s.206-2.615.415-4.851,4.434-5.288,4.434-5.288l4.074-6.064C919.357,348.373,919.083,349.373,918.459,350.353Z" transform="translate(-678.356 -259.257)" fill="#fff"/>
          <path id="Path_152" data-name="Path 152" d="M893.144,470.643s-6-.273-8.9-3.926,6.716-1.458,6.716-1.458l2.5.6Z" transform="translate(-663.751 -344.229)" fill="#ffb0b1"/>
          <path id="Path_153" data-name="Path 153" d="M965.063,433.811a8.317,8.317,0,0,0-.151,3.656,47.6,47.6,0,0,1-13.544-1.365,30.223,30.223,0,0,1-4.739,3.107l-1.873-24.3c-1.2-3.276-1.667-20.441-1.667-20.441s.107-.9.261-2.244a.269.269,0,0,1,.013-.1c.467-3.759,1.393-10.817,1.847-11.77.626-1.31-1.925-4.8-1.925-4.8l1.161-10.361.141-1.25c2.446-1.144,4.322-4.8,4.322-4.8l1.44-2.64h0c1.565-1.051,1.646,9.25,1.646,9.25l-1.565,24.323,5.185-1.5S965.947,430.7,965.063,433.811Z" transform="translate(-707.126 -264.031)" opacity="0.1"/>
          <path id="Path_154" data-name="Path 154" d="M972.666,418.163c-7.133,3.708-20.1.273-20.1.273a30.226,30.226,0,0,1-4.739,3.107l-1.875-24.3c-1.195-3.276-1.664-20.441-1.664-20.441S945.8,364,946.423,362.689a2.194,2.194,0,0,0-.122-1.562,20.614,20.614,0,0,1-1.142-9.143l.5-4.453.138-1.248c2.449-1.147,4.324-4.8,4.324-4.8l1.3-2.392,2.4-4.406,1.137-2.086.193.183,1.474,1.4,1.565,1.365c2.042,1.8,5.571,4.974,7.391,6.915,1.6,1.709,2.107,8.357,2.253,13.361.1,3.3.039,5.878.039,5.878-1.614,2.782,2.608,25.118,2.608,25.118C971.469,391.135,972.666,418.163,972.666,418.163Z" transform="translate(-708.013 -247.088)" fill="#fff"/>
          <path id="Path_155" data-name="Path 155" d="M938.381,363.915s-4.9,9.755-4.327,13.462,2.186,7.9,1.406,8.884a2.84,2.84,0,0,1-2.292,1.2A7.475,7.475,0,0,0,930.3,389.2a26.155,26.155,0,0,0-3.651.928,21.916,21.916,0,0,1-4.269,1.2s-4.955-.164-5.417.328-.936,3.432.052,5.777,2.086,4.1,2.916,4.415,6.092-1.526,10.362-1.963,8.9-3.978,8.9-3.978,5.1-1.911,6-5.125S944.1,369.91,944.1,369.91,942.6,361.679,938.381,363.915Z" transform="translate(-687.421 -271.803)" opacity="0.03"/>
          <path id="Path_156" data-name="Path 156" d="M936,360.917s-4.9,9.758-4.322,13.462,2.185,7.9,1.4,8.887a2.827,2.827,0,0,1-2.29,1.2,7.475,7.475,0,0,0-2.869,1.745,26.376,26.376,0,0,0-3.651.926,22.133,22.133,0,0,1-4.269,1.2s-4.955-.164-5.414.328-.939,3.435.052,5.777,2.086,4.1,2.916,4.415,6.092-1.526,10.362-1.96,8.9-3.981,8.9-3.981,5.1-1.911,5.986-5.122-1.093-20.878-1.093-20.878S940.22,358.683,936,360.917Z" transform="translate(-685.669 -269.707)" opacity="0.03"/>
          <path id="Path_157" data-name="Path 157" d="M937.806,362.125s-4.9,9.758-4.322,13.462,2.185,7.9,1.406,8.884a2.828,2.828,0,0,1-2.292,1.2,7.508,7.508,0,0,0-2.869,1.742,25.822,25.822,0,0,0-3.651.928,21.966,21.966,0,0,1-4.269,1.2s-4.955-.164-5.417.328-.936,3.435.052,5.777,2.086,4.1,2.916,4.415,6.092-1.526,10.362-1.963,8.9-3.978,8.9-3.978,5.1-1.911,6-5.125-1.08-20.875-1.08-20.875S942.021,359.9,937.806,362.125Z" transform="translate(-687 -270.554)" fill="#fff"/>
          <path id="Path_158" data-name="Path 158" d="M991.545,458.351s-3.912-.819-2.551.546,1.354,2.561,3.02,2.506S991.545,458.351,991.545,458.351Z" transform="translate(-740.846 -339.78)" opacity="0.1"/>
          <path id="Path_159" data-name="Path 159" d="M1023.631,566.58s-1.768,1.253,1.614,4.142S1023.631,566.58,1023.631,566.58Z" transform="translate(-766.32 -416.036)" opacity="0.1"/>
          <path id="Path_160" data-name="Path 160" d="M1011.785,604.31c0,.164-.626,6.006,1.716,7.467S1011.785,604.31,1011.785,604.31Z" transform="translate(-757.849 -442.412)" opacity="0.1"/>
          <path id="Path_161" data-name="Path 161" d="M856.821,436.59c-1.888.068-5.967.672-3.852,4.8,1.87,3.656,5.013,1.212,6.781-.642A6.96,6.96,0,0,0,856.821,436.59Z" transform="translate(-640.689 -324.492)" fill="#ffb0b1"/>
          <path id="Path_162" data-name="Path 162" d="M881.39,451Z" transform="translate(-662.118 -334.918)" fill="#ffb0b1"/>
          <path id="Path_163" data-name="Path 163" d="M880.74,451.485l.078-.085Z" transform="translate(-661.638 -335.196)" fill="#ffb0b1"/>
          <path id="Path_164" data-name="Path 164" d="M962.074,336.141c-2,1.433-3.682,2.643-4.011,2.894-.9.7-2.608,4.783-3.711,6.869-.879,1.679-3.735,2.11-4.812,2.217l.138-1.248c2.449-1.147,4.324-4.8,4.324-4.8l4.841-8.884,1.667,1.586Z" transform="translate(-711.894 -251.491)" opacity="0.1"/>
          <path id="Path_165" data-name="Path 165" d="M962.074,335.541c-2,1.433-3.682,2.643-4.011,2.9-.9.693-2.608,4.781-3.711,6.866-.879,1.679-3.735,2.11-4.812,2.217l.138-1.248c2.449-1.147,4.324-4.8,4.324-4.8l4.841-8.884,1.667,1.581S961.135,334.711,962.074,335.541Z" transform="translate(-711.894 -251.069)" fill="#dce7ff"/>
          <path id="Path_166" data-name="Path 166" d="M938.968,296.36a8.351,8.351,0,0,1-1.361,4.589,7.533,7.533,0,0,1-9.751,2.7,8.239,8.239,0,0,1-4.011-9.687,7.726,7.726,0,0,1,8.547-5.6,7.992,7.992,0,0,1,6.576,8Z" transform="translate(-693.039 -219.896)" fill="#ffb0b1"/>
          <path id="Path_167" data-name="Path 167" d="M954.06,323.593a7.078,7.078,0,0,1-2.5-2.807,7.47,7.47,0,0,0-1.468-2.58,6.351,6.351,0,0,0-2.4-.969,7.287,7.287,0,0,1-5.13-6.462c-.042-1.409.378-2.815.188-4.21a4.78,4.78,0,0,0-.871-2.171,7.364,7.364,0,0,0-.754-.849c-.365-.36-.749-.71-1.082-1.092a4.237,4.237,0,0,1-.548-.778,3.831,3.831,0,0,1-.3-.724c-.522-1.671-.047-3.653-.621-5.343l-.031-.093c-.216-.6-.657-1.2-1.27-1.248s-1.137.486-1.721.724c-1.223.5-2.543-.349-3.563-1.212s-2.17-1.848-3.466-1.657a10.942,10.942,0,0,0-2.326,1.057,3.141,3.141,0,0,1-.55.167,7.674,7.674,0,0,1,8.645-4.935,8.009,8.009,0,0,1,6.266,7.952,8.375,8.375,0,0,1-.17,1.69c.013.038.026.074.042.112.3.819.644,1.66.944,2.386l1.474,1.4,1.565,1.365c2.042,1.8,5.571,4.974,7.391,6.916C953.408,311.943,953.908,318.588,954.06,323.593Z" transform="translate(-694.235 -219.287)" opacity="0.1"/>
          <path id="Path_168" data-name="Path 168" d="M921.343,271.645c.373-.794.558-1.685,1-2.438a5.565,5.565,0,0,1,2.971-2.214c3.065-1.106,9.54-2.711,11.475,0a5.854,5.854,0,0,0,1.223,1.529,8.887,8.887,0,0,0,1.327.625,5.279,5.279,0,0,1,2.441,3.276c.42,1.349.545,2.8.853,4.185a31.735,31.735,0,0,0,1.773,5.152,14.3,14.3,0,0,0,3.237,5.438c2.136,1.911,2.608,4.617,4.59,6.714,2.347,2.49,2.272,6.6,1.061,9.861a2.811,2.811,0,0,0-.276,1.332,2.641,2.641,0,0,0,.691,1.234L955,307.855a7.109,7.109,0,0,1-7.884-3.806,7.458,7.458,0,0,0-1.471-2.58,6.334,6.334,0,0,0-2.4-.966,7.3,7.3,0,0,1-5.13-6.468c-.042-1.406.378-2.812.188-4.2a4.759,4.759,0,0,0-.874-2.184c-.717-.98-1.8-1.638-2.384-2.73-.988-1.826-.237-4.2-.949-6.159-.219-.6-.657-1.2-1.27-1.248s-1.137.486-1.724.723c-1.221.5-2.54-.347-3.56-1.212s-2.17-1.848-3.469-1.654a10.656,10.656,0,0,0-2.324,1.057c-.584.235-1.768.445-2.28-.071C918.391,275.312,920.892,272.617,921.343,271.645Z" transform="translate(-689.469 -203.126)" fill="#591d4b"/>
          <path id="Path_169" data-name="Path 169" d="M947.679,310.22a7.461,7.461,0,0,0-1.471-2.577,6.333,6.333,0,0,0-2.4-.969,7.3,7.3,0,0,1-5.13-6.465c-.042-1.406.378-2.815.19-4.207a4.786,4.786,0,0,0-.874-2.17c-.72-.98-1.8-1.638-2.384-2.73-.988-1.824-.237-4.2-.952-6.159-.216-.6-.657-1.2-1.268-1.248s-1.14.489-1.724.726c-1.221.5-2.543-.349-3.56-1.212s-2.173-1.848-3.469-1.657a10.866,10.866,0,0,0-2.324,1.057c-.584.235-1.771.448-2.282-.068-1.074-1.092,1.427-3.781,1.875-4.748.373-.8.558-1.685,1.007-2.438.023-.041.05-.082.076-.123a4.284,4.284,0,0,0-.858,1.021c-.446.754-.631,1.638-1,2.438-.451.966-2.952,3.664-1.875,4.748.522.519,1.7.306,2.279.071a10.491,10.491,0,0,1,2.324-1.057c1.3-.194,2.452.792,3.469,1.654s2.347,1.709,3.563,1.212c.584-.238,1.1-.773,1.721-.724s1.043.647,1.27,1.248c.712,1.96-.039,4.333.949,6.159.584,1.073,1.667,1.745,2.384,2.73a4.759,4.759,0,0,1,.874,2.184c.19,1.392-.229,2.8-.188,4.2a7.285,7.285,0,0,0,5.13,6.468,6.368,6.368,0,0,1,2.4.966,7.3,7.3,0,0,1,1.471,2.58,7.109,7.109,0,0,0,7.884,3.806l-.605-.715A7.249,7.249,0,0,1,947.679,310.22Z" transform="translate(-689.309 -210.014)" opacity="0.1"/>
          <path id="Path_170" data-name="Path 170" d="M949.874,350.88a56.653,56.653,0,0,0-2.136,5.782c-.764-.311-1.458-2.3-1.458-2.3l4.074-6.066C950.771,348.9,950.5,349.9,949.874,350.88Z" transform="translate(-709.484 -262.332)" opacity="0.1"/>
          <path id="Path_171" data-name="Path 171" d="M950.474,350.287a56.639,56.639,0,0,0-2.136,5.783c-.764-.309-1.458-2.3-1.458-2.3l4.074-6.064C951.371,348.308,951.1,349.307,950.474,350.287Z" transform="translate(-709.928 -261.917)" fill="#dce7ff"/>
          <path id="Path_172" data-name="Path 172" d="M863.349,437.037l-2.259-7.456a.726.726,0,0,1,.043-.532.674.674,0,0,1,.39-.344h0a.662.662,0,0,1,.835.453l2.259,7.448-.224,1.559Z" transform="translate(-647.111 -318.804)" fill="#be8b87"/>
          <path id="Path_173" data-name="Path 173" d="M861.608,428.955h0a.662.662,0,0,1,.837.453l2.259,7.448-.169,1.169.164.18.224-1.559-2.272-7.448a.662.662,0,0,0-.835-.453h0a.672.672,0,0,0-.347.273A.885.885,0,0,1,861.608,428.955Z" transform="translate(-647.415 -318.832)" fill="#fff" opacity="0.1"/>
          <path id="Path_174" data-name="Path 174" d="M822.6,399.56l1.268-.42-.185,1.278-.039.281-.37-.4Z" transform="translate(-606.358 -280.989)" fill="#efc8c4"/>
          <path id="Path_175" data-name="Path 175" d="M872.42,461.761a.263.263,0,0,1,.081-.071.11.11,0,0,1,.123,0,.341.341,0,0,1,.044.074.225.225,0,0,0,.162.112l-.039.273Z" transform="translate(-655.504 -342.413)" fill="#727a9c"/>
          <path id="Path_176" data-name="Path 176" d="M861.13,441.7s4.53-.027,3.464,1.99a4.082,4.082,0,0,1-2.733,2.261Z" transform="translate(-647.164 -328.192)" fill="#ffb0b1"/>
          <path id="Path_177" data-name="Path 177" d="M584.187,110.05h-.2a22.089,22.089,0,0,0-18.624,10.672,22.089,22.089,0,0,0-18.624-10.672h-.2c-12.156.121-21.951,10.467-21.957,23.193,0,7.593,3.177,18.366,9.371,27.231,11.8,16.892,31.406,31.67,31.406,31.67s19.6-14.776,31.4-31.67c6.2-8.865,9.371-19.638,9.371-27.231C606.135,120.518,596.341,110.173,584.187,110.05Zm-2.8,51.723a4.406,4.406,0,0,1-4.087-2.954h-4.653a1.479,1.479,0,0,1-1.385-1.048l-1.429-4.508-4.522,16.542a1.474,1.474,0,0,1-1.4,1.106h-.091a1.47,1.47,0,0,1-1.356-1.267L557.8,140.3l-3.406,17.364a1.467,1.467,0,0,1-1.411,1.155H546.43a1.443,1.443,0,0,1-1.314-.743,1.588,1.588,0,0,1,0-1.563,1.443,1.443,0,0,1,1.314-.743h5.406l4.825-23.346a1.452,1.452,0,0,1,2.869.126l4.76,29.934,4.053-14.8a1.447,1.447,0,0,1,1.364-1.092h.029a1.463,1.463,0,0,1,1.382,1.048l2.585,8.139h3.542a4.35,4.35,0,0,1,5.072-3.043,4.557,4.557,0,0,1,3.427,4.957,4.45,4.45,0,0,1-4.347,4.092Z" transform="translate(-398.746 -96.01)" fill="#4393cf"/>
        </g>
      </g>
    </g>
  </g>
</svg>
