<svg width="36" height="32" viewBox="0 0 36 32" fill="none" xmlns="http://www.w3.org/2000/svg">
<path d="M23.0903 27.029L19.031 30.8716C18.3786 31.5241 17.3638 31.5241 16.7114 30.8716L7.07058 21.8088C0.69169 15.4286 -3.00517 9.77342 3.15626 2.95821C7.07058 -1.39192 12.5796 -0.811908 17.5813 3.82824C17.7262 3.97324 18.0162 3.97324 18.1612 3.82824C22.6554 -0.811908 28.6718 -1.02941 32.5861 2.95821C37.2978 7.67086 36.5005 12.0935 33.2385 16.5886C32.0062 13.8335 29.2517 11.876 26.0623 11.876C21.713 11.876 18.1612 15.3561 18.1612 19.7062C18.0887 23.0413 20.1908 25.8689 23.0903 27.029ZM33.0936 19.7062C33.0936 23.6214 29.9041 26.8839 25.9898 26.8114C22.003 26.8114 18.8135 23.6214 18.8135 19.7062C18.8135 15.7911 22.003 12.5285 25.9898 12.601C29.9766 12.601 33.0936 15.7911 33.0936 19.7062ZM20.0458 19.7062C20.0458 23.0413 22.7279 25.6514 25.9898 25.6514C29.3242 25.6514 32.0062 22.9688 31.9338 19.6337C31.9338 16.3711 29.1792 13.761 25.9173 13.761C22.6554 13.761 19.9733 16.4436 20.0458 19.7062ZM27.802 14.7761C28.0919 14.8486 27.2946 18.6912 27.1496 19.1262C27.4395 19.4887 27.4395 19.9962 27.2946 20.4313C27.2946 20.5038 27.2221 20.5763 27.1496 20.6488C27.0771 20.7938 26.9321 20.9388 26.7147 21.0113C26.3522 21.2288 25.8448 21.3013 25.4099 21.0838C24.83 20.7938 24.4676 20.1412 24.6125 19.4887C24.6125 19.4162 24.685 19.3437 24.685 19.2712C24.9025 18.8362 25.2649 18.5462 25.6998 18.4737C25.7723 18.5462 27.512 14.7036 27.802 14.7761Z" fill="white"/>
</svg>
