<svg width="37" height="33" viewBox="0 0 37 33" fill="none" xmlns="http://www.w3.org/2000/svg">
<path d="M33.2717 2.97259C31.3146 1.01503 28.7775 0 26.023 0C23.2685 0 20.7314 1.08753 18.7742 2.97259L18.1219 3.62511L17.4695 2.97259C15.5123 1.01503 12.9753 0 10.2207 0C7.46621 0 4.92915 1.08753 2.97199 2.97259C1.01483 4.93015 0 7.46773 0 10.2228C0 12.9779 1.08732 15.5155 2.97199 17.473L17.397 31.901C17.6144 32.1185 17.8319 32.191 18.0494 32.191C18.2668 32.191 18.5568 32.1185 18.7017 31.901L33.1268 17.473C35.0839 15.5155 36.0987 12.9779 36.0987 10.2228C36.2437 7.46773 35.1564 4.85765 33.2717 2.97259ZM28.3426 13.9204H21.8187C21.6013 13.9204 21.3113 13.8479 21.1663 13.6304L20.079 12.5429L16.962 17.183C16.8171 17.473 16.5271 17.618 16.1647 17.618H16.0922C15.7298 17.618 15.4398 17.4005 15.2948 17.1105L13.7001 13.9204H7.97361C7.4662 13.9204 7.03129 13.4854 7.03129 12.9779C7.03129 12.4704 7.4662 12.0354 7.97361 12.0354H14.4975C14.8599 12.0354 15.1499 12.2529 15.2948 12.5429L16.4547 14.7905L19.2817 10.5853C19.4266 10.3678 19.7166 10.2228 19.934 10.1503C20.224 10.1503 20.5139 10.2228 20.6589 10.4403L22.2536 12.0354H28.3426C28.85 12.0354 29.2849 12.4704 29.2849 12.9779C29.2849 13.4854 28.85 13.9204 28.3426 13.9204Z" fill="white"/>
</svg>
