<svg width="50" height="60" viewBox="0 0 50 60" fill="none" xmlns="http://www.w3.org/2000/svg">
<path d="M40.2395 25.5616C40.2395 27.667 39.8275 29.633 39.0619 31.187C36.0448 37.3217 35.3894 39.385 35.3894 50" stroke="#F5AE45" stroke-width="1.2" stroke-linecap="round" stroke-linejoin="round"/>
<path d="M18.3867 50V41.6495H12.6023C11.2949 41.6495 10.6915 40.8968 10.6915 39.1352V34.3565H8.02474C7.37266 34.3565 6.31506 33.9543 7.62246 31.9915C8.92987 30.0288 11.1424 25.753 11.1424 25.753C11.1424 25.753 9.68252 18.7098 15.5188 13.9312C19.188 10.9238 23.5157 9.69101 27.6715 10.3528" stroke="#F5AE45" stroke-width="1.2" stroke-linecap="round" stroke-linejoin="round"/>
<path d="M32.6967 25.5616C32.6967 25.5616 27.7721 21.3993 26.2311 19.1219C24.6901 16.8444 25.8223 13.331 28.9173 13.331C32.0122 13.331 32.6967 16.3091 32.6967 16.3091C32.6967 16.3091 33.3975 13.331 36.4762 13.331C39.555 13.331 40.7034 16.8444 39.1624 19.1219C37.6214 21.3993 32.6967 25.5616 32.6967 25.5616Z" stroke="#F5AE45" stroke-width="1.2" stroke-linecap="round" stroke-linejoin="round"/>
<path d="M32.6968 28.9972C38.2188 28.9972 42.6953 24.5206 42.6953 18.9986C42.6953 13.4765 38.2188 9 32.6968 9C27.1747 9 22.6982 13.4765 22.6982 18.9986C22.6982 24.5206 27.1747 28.9972 32.6968 28.9972Z" stroke="#F5AE45" stroke-width="1.2" stroke-linecap="round" stroke-linejoin="round"/>
</svg>
