<svg width="238" height="400" viewBox="0 0 238 400" fill="none" xmlns="http://www.w3.org/2000/svg">
<path fill-rule="evenodd" clip-rule="evenodd" d="M114.337 0C102.463 0 92.8374 9.6259 92.8374 21.5V42.5C92.8374 53.5658 101.197 62.679 111.946 63.8685C111.948 63.9197 111.951 63.971 111.954 64.0225H140.954C145.538 59.5438 141.046 30.9923 137.599 18.2902C136.049 7.9385 127.12 0 116.337 0H114.337Z" fill="#191847"/>
<path fill-rule="evenodd" clip-rule="evenodd" d="M115.772 48.2443C122.248 52.1475 128.611 54.0333 131.597 53.2635C139.087 51.333 139.775 23.9351 133.98 13.1339C128.186 2.3328 98.3954 -2.375 96.8944 19.0255C96.3734 26.4529 99.4914 33.0814 104.099 38.4901L95.8374 77H119.837L115.772 48.2443Z" fill="#D4A181"/>
<path fill-rule="evenodd" clip-rule="evenodd" d="M93.7184 19.1504C94.4154 18.4614 95.0894 17.7947 95.7584 17.1981L95.7264 16.4207C95.7264 16.4207 103.258 1 114.838 1C126.408 1 130.067 6.3787 133.177 10.9508L133.186 10.9631C131.559 16.5452 126.656 18.8037 121.111 21.3579C118.724 22.4574 116.218 23.6117 113.803 25.1095C112.857 24.341 111.651 23.8804 110.337 23.8804C107.299 23.8804 104.837 26.3428 104.837 29.3804C104.837 32.418 107.299 34.8804 110.337 34.8804C110.421 34.8804 110.504 34.8785 110.587 34.8748C111.693 46.7528 111.25 60.3173 107.954 63.5371H78.9544C78.1224 49.0731 81.8634 44.947 85.6874 40.7307C89.2844 36.7635 92.9544 32.7166 92.9544 19.9028C93.2124 19.6506 93.4674 19.3991 93.7184 19.1505V19.1504Z" fill="#191847"/>
<path fill-rule="evenodd" clip-rule="evenodd" d="M85.3785 161L125.116 288.227L154.108 382H175.254L144.446 161H85.3785Z" fill="#4393CF"/>
<path fill-rule="evenodd" clip-rule="evenodd" d="M74.7513 161C73.8328 226.574 70.6981 262.34 69.7336 268.298C68.768 274.256 54.1765 312.156 25.958 382H47.8639C83.7882 314.997 103.843 277.096 108.026 268.298C112.209 259.5 125.12 223.734 144.565 161H74.7513Z" fill="#4393CF"/>
<path fill-rule="evenodd" clip-rule="evenodd" d="M24 400L25.096 379H48.113C64.4835 389.5 90.8588 396 90.8588 396V400H49.209L34.9605 398V400H24Z" fill="#E5E5E5"/>
<path fill-rule="evenodd" clip-rule="evenodd" d="M151.141 400L152.237 379H175.254C191.625 389.5 218 396 218 396V400H176.35L162.102 398V400H151.141Z" fill="#E5E5E5"/>
<path fill-rule="evenodd" clip-rule="evenodd" d="M213.32 114.925L173.837 120.311L180.921 138L212.958 125.299C226.767 126.661 233.444 126.333 232.989 124.315C232.606 122.613 231.139 122.099 229.787 121.626C228.733 121.257 227.751 120.913 227.405 120.051C226.617 118.083 231.106 114.003 235.53 110.315C239.954 106.627 236.984 105.948 235.118 106.003C228.484 107.558 221.218 110.532 213.32 114.925ZM21.2352 211.908C24.1656 205.963 49.807 129.45 49.807 129.45L71.7044 129.532C71.7044 129.532 35.6878 210.583 34.1452 214.406C32.1412 219.372 35.5452 226.587 37.8533 231.48C38.2104 232.237 38.5413 232.938 38.8218 233.567C35.6191 235 34.0807 233.268 32.4587 231.442C30.6268 229.379 28.6884 227.197 24.1252 229.319C22.3622 230.14 20.6939 231.109 19.064 232.057C13.4341 235.329 8.26213 238.336 1.22633 233.994C0.110825 233.306 -1.11148 230.715 1.84182 228.69C9.19962 223.645 19.8025 214.815 21.2352 211.908Z" fill="#D4A181"/>
<path fill-rule="evenodd" clip-rule="evenodd" d="M109.786 60L126.931 61.1422C131.154 99.343 154.153 123.473 205.648 115.304L212.489 164.499C164.36 170.719 122.15 151.45 113.499 99.278C111.26 85.773 109.492 71.7178 109.786 60Z" fill="#AFB9C5"/>
<path fill-rule="evenodd" clip-rule="evenodd" d="M24.2393 202C36.143 138.664 61.2674 89.664 99.6134 55H101.258H101.314L101.328 55.0159L127.305 60.9653C127.305 92.169 134.247 115.485 140.921 137.9C143.803 147.58 146.636 157.093 148.837 167H78.6814C77.6934 178.351 77.0864 190.018 76.7694 202H24.2393Z" fill="#C5CFD6"/>
<path fill-rule="evenodd" clip-rule="evenodd" d="M78.6814 167C80.6934 143.891 84.2864 122.09 90.2254 101.598C88.9234 123.512 88.5624 150.698 92.9404 167H78.6814Z" fill="black" fill-opacity="0.1"/>
</svg>
