<svg width="259" height="512" viewBox="0 0 259 512" fill="none" xmlns="http://www.w3.org/2000/svg">
<g clip-path="url(#clip0)">
<path d="M220.076 161.94C220.076 161.94 256.785 264.624 257.061 265.38C260.917 275.926 255.493 287.602 244.946 291.458C234.404 295.314 222.725 289.893 218.867 279.344C218.693 278.868 191.613 197.912 191.613 197.912C191.613 197.912 185.743 180.764 183 172.898L198.403 160L220.076 161.94Z" fill="#FFB69E"/>
<path d="M38.2267 161.94C38.2267 161.94 1.51809 264.624 1.24181 265.38C-2.61403 275.926 2.80937 287.602 13.3569 291.458C23.8984 295.314 35.578 289.893 39.4359 279.344C39.61 278.868 66.69 197.912 66.69 197.912C66.69 197.912 72.5599 180.764 75.3026 172.898L59.9002 160L38.2267 161.94Z" fill="#FFB69E"/>
<path d="M99.7804 512C86.305 512 75.3811 501.076 75.3811 487.601V292.571C75.3811 279.096 86.305 268.172 99.7804 268.172C113.256 268.172 124.18 279.096 124.18 292.571V487.601C124.181 501.076 113.256 512 99.7804 512Z" fill="#FFB69E"/>
<path d="M159.115 512C145.639 512 134.715 501.076 134.715 487.601V292.571C134.715 279.096 145.639 268.172 159.115 268.172C172.59 268.172 183.514 279.096 183.514 292.571V487.601C183.515 501.076 172.59 512 159.115 512Z" fill="#FFB69E"/>
<path d="M153.541 96.5232H105.707V100.419C105.707 113.628 116.415 124.336 129.624 124.336C142.833 124.336 153.541 113.628 153.541 100.419V96.5232Z" fill="#FFB69E"/>
<path d="M189.264 175.651L221.165 165.084C221.165 165.084 213.618 143.71 211.687 138.09C202.253 110.638 186.436 96.7195 164.673 96.7195H149.748C150.121 107.708 139.909 117.032 129.248 117.032C117.821 117.032 109.351 107.743 108.767 96.7195H94.2237C72.4611 96.7195 56.6433 110.639 47.2099 138.09C44.1449 147.007 36.0398 169.936 36.0398 169.936L68.2078 177.961L48.4632 326.871C47.264 333.791 52.6203 340.109 59.5923 340.109H199.301C206.295 340.109 211.632 333.801 210.43 326.871L189.264 175.651Z" fill="#4061CA"/>
<path d="M132.517 84.2036C155.745 82.5512 173.234 62.3822 171.582 39.1549C169.93 15.9276 149.761 -1.56217 126.533 0.0902646C103.306 1.74271 85.8161 21.9117 87.4686 45.1389C89.121 68.3662 109.29 85.8561 132.517 84.2036Z" fill="#FFB69E"/>
</g>
<defs>
<clipPath id="clip0">
<rect width="259" height="512" fill="white"/>
</clipPath>
</defs>
</svg>
